<svg width="761" height="783" viewBox="0 0 761 783" fill="none" xmlns="http://www.w3.org/2000/svg">
<path d="M158.958 536.433C164.376 551.592 178.074 563.415 193.294 567.424C216.124 573.485 238.954 559.594 261.784 553.221C302.33 541.899 345.083 554.458 385.583 565.921C426.084 577.384 470.009 587.657 509.246 572.185C542.928 558.937 567.63 528.478 584.707 495.811C617.125 433.719 626.699 361.887 631.447 291.574C633.563 260.254 634.735 227.916 625.101 198.068C615.466 168.22 592.88 140.94 562.881 134.942C534.085 129.164 504.954 143.665 481.683 162.05C458.411 180.435 438.229 203.188 412.827 218.285C375.812 240.209 330.639 243.936 288.404 237.155C262.256 232.958 218.65 181.954 174.254 200.808C127.026 220.806 106.449 390.404 158.958 536.433Z" fill="#367D43"/>
<path opacity="0.9" d="M158.958 536.433C164.376 551.592 178.074 563.415 193.294 567.424C216.124 573.485 238.954 559.594 261.784 553.221C302.33 541.899 345.083 554.458 385.583 565.921C426.084 577.384 470.009 587.657 509.246 572.185C542.928 558.937 567.63 528.478 584.707 495.811C617.125 433.719 626.699 361.887 631.447 291.574C633.563 260.254 634.735 227.916 625.101 198.068C615.466 168.22 592.88 140.94 562.881 134.942C534.085 129.164 504.954 143.665 481.683 162.05C458.411 180.435 438.229 203.188 412.827 218.285C375.812 240.209 330.639 243.936 288.404 237.155C262.256 232.958 218.65 181.954 174.254 200.808C127.026 220.806 106.449 390.404 158.958 536.433Z" fill="#CADBC2"/>
<path d="M380.5 659.897C543.48 659.897 675.601 651.96 675.601 642.17C675.601 632.379 543.48 624.443 380.5 624.443C217.52 624.443 85.3994 632.379 85.3994 642.17C85.3994 651.96 217.52 659.897 380.5 659.897Z" fill="#F5F5F5"/>
<path d="M595.27 525.659C580.05 537.733 575.651 564.183 574.875 582.818C574.875 584.525 572.242 584.525 572.303 582.818C573.109 563.087 577.477 536.449 593.976 523.31C595.285 522.261 596.578 524.563 595.27 525.597V525.659Z" fill="#263238"/>
<path d="M559.929 512.082C563.81 511.628 567.082 515.715 568.772 518.706C577.523 534.288 574.144 557.856 572.485 574.534C572.318 576.21 569.73 576.225 569.898 574.534C571.511 558.263 574.464 537.06 567.31 521.588C566.078 518.941 563.46 514.321 559.929 514.744C558.285 514.932 558.3 512.286 559.929 512.082Z" fill="#263238"/>
<path d="M550.492 533.536C566.778 529.402 568.756 566.563 569.289 574.581C569.396 576.288 566.823 576.272 566.717 574.581C566.062 563.729 565.545 548.194 557.92 539.503C556.398 537.749 553.704 535.447 551.177 536.104C549.564 536.512 548.879 533.943 550.492 533.536Z" fill="#263238"/>
<path d="M598.77 551.577C585.3 541.304 580.917 568.27 580.171 576.053C580.004 577.729 577.432 577.744 577.599 576.053C578.436 567.237 579.745 551.248 589.638 547.552C591.385 546.965 593.242 546.817 595.056 547.12C596.87 547.422 598.587 548.166 600.064 549.29C601.388 550.292 600.064 552.594 598.77 551.577Z" fill="#263238"/>
<path d="M545.196 556.447C546.214 555.339 547.469 554.491 548.861 553.969C550.253 553.447 551.745 553.266 553.217 553.44C561.435 554.849 563.703 567.534 564.951 574.221C565.271 575.896 562.79 576.601 562.47 574.926C561.39 569.225 556.215 548.742 547.022 558.31C546.774 558.517 546.461 558.622 546.143 558.606C545.824 558.589 545.523 558.452 545.297 558.221C545.07 557.99 544.935 557.681 544.916 557.354C544.897 557.026 544.997 556.703 545.196 556.447Z" fill="#263238"/>
<path d="M593.702 643.344H554.754C551.25 640.3 548.434 636.507 546.502 632.228C544.57 627.949 543.568 623.288 543.567 618.57C543.567 607.201 549.777 573.156 549.777 573.156H598.679C598.679 573.156 604.889 607.248 604.889 618.57C604.888 623.288 603.886 627.949 601.954 632.228C600.022 636.507 597.206 640.3 593.702 643.344Z" fill="#263238"/>
<path d="M599.911 564.653C588.162 564.653 576.655 559.751 574.235 553.691C571.815 547.63 579.349 542.729 591.099 542.729C594.883 542.738 598.651 543.233 602.316 544.201C605.57 543.178 608.959 542.681 612.361 542.729C624.111 542.729 635.602 547.63 638.038 553.691C640.473 559.751 632.924 564.653 621.174 564.653H599.911Z" fill="#367D43"/>
<path opacity="0.1" d="M599.911 564.653C588.162 564.653 576.655 559.751 574.235 553.691C571.815 547.63 579.349 542.729 591.099 542.729C594.883 542.738 598.651 543.233 602.316 544.201C605.57 543.178 608.959 542.681 612.361 542.729C624.111 542.729 635.602 547.63 638.038 553.691C640.473 559.751 632.924 564.653 621.174 564.653H599.911Z" fill="black"/>
<path d="M523.248 541.225C513.645 541.225 509.748 537.216 514.558 532.268C519.367 527.319 531.041 523.326 540.66 523.326C543.218 523.238 545.769 523.647 548.179 524.532C551.419 523.76 554.731 523.355 558.057 523.326C567.66 523.326 571.557 527.335 566.747 532.268C561.938 537.201 550.264 541.225 540.66 541.225H523.248Z" fill="#367D43"/>
<path d="M611.631 532.268C599.531 532.268 584.844 527.225 578.786 521.008C572.729 514.791 577.645 509.749 589.745 509.749C593.927 509.808 598.091 510.333 602.164 511.315C605.197 510.187 608.408 509.656 611.631 509.749C623.716 509.749 638.418 514.791 644.461 521.008C650.503 527.225 645.602 532.268 633.517 532.268H611.631Z" fill="#367D43"/>
<path opacity="0.2" d="M611.631 532.268C599.531 532.268 584.844 527.225 578.786 521.008C572.729 514.791 577.645 509.749 589.745 509.749C593.927 509.808 598.091 510.333 602.164 511.315C605.197 510.187 608.408 509.656 611.631 509.749C623.716 509.749 638.418 514.791 644.461 521.008C650.503 527.225 645.602 532.268 633.517 532.268H611.631Z" fill="#CADBC2"/>
<path d="M544.419 517.735C538.331 517.735 534.481 515.214 535.744 512.098C537.007 508.981 542.913 506.476 548.955 506.476C550.703 506.444 552.444 506.698 554.115 507.227C556.004 506.727 557.947 506.475 559.898 506.476C565.986 506.476 569.822 508.997 568.574 512.098C567.326 515.198 561.405 517.735 555.363 517.735H544.419Z" fill="#367D43"/>
<path opacity="0.3" d="M544.419 517.735C538.331 517.735 534.481 515.214 535.744 512.098C537.007 508.981 542.913 506.476 548.955 506.476C550.703 506.444 552.444 506.698 554.115 507.227C556.004 506.727 557.947 506.475 559.898 506.476C565.986 506.476 569.822 508.997 568.574 512.098C567.326 515.198 561.405 517.735 555.363 517.735H544.419Z" fill="#CADBC2"/>
<path d="M537.449 562.773C531.361 562.773 525.486 560.252 524.238 557.151C522.99 554.051 526.871 551.514 532.913 551.514C534.865 551.518 536.808 551.776 538.697 552.281C540.366 551.746 542.108 551.487 543.856 551.514C549.944 551.514 555.819 554.035 557.067 557.151C558.315 560.268 554.434 562.773 548.392 562.773H537.449Z" fill="#367D43"/>
<path opacity="0.2" d="M537.449 562.773C531.361 562.773 525.486 560.252 524.238 557.151C522.99 554.051 526.871 551.514 532.913 551.514C534.865 551.518 536.808 551.776 538.697 552.281C540.366 551.746 542.108 551.487 543.856 551.514C549.944 551.514 555.819 554.035 557.067 557.151C558.315 560.268 554.434 562.773 548.392 562.773H537.449Z" fill="black"/>
<path d="M548.666 579.42C549.32 575.599 549.777 573.156 549.777 573.156H598.679C598.679 573.156 599.135 575.646 599.79 579.42H548.666Z" fill="#367D43"/>
<path d="M546.535 526.708C546.535 526.708 533.126 531.312 528.88 538.892C528.88 538.892 529.55 527.852 546.535 526.708Z" fill="#FAFAFA"/>
<path d="M552.851 508.652C550.691 509.933 548.785 511.623 547.235 513.632C547.608 512.335 548.336 511.176 549.332 510.293C550.328 509.41 551.549 508.84 552.851 508.652Z" fill="#FAFAFA"/>
<path d="M604.889 513.648C604.889 513.648 619.424 519.129 628.373 529.48C625.997 525.082 622.619 521.343 618.528 518.585C614.437 515.827 609.757 514.133 604.889 513.648Z" fill="#FAFAFA"/>
<path d="M604.889 546.941C610.933 549.531 616.189 553.744 620.109 559.14C620.109 559.14 617.415 548.773 604.889 546.941Z" fill="#E6E6E6"/>
<path d="M538.925 554.536C540.001 555.118 540.915 555.973 541.581 557.02C542.247 558.067 542.642 559.271 542.73 560.518C540.951 558.922 539.634 556.852 538.925 554.536Z" fill="#FAFAFA"/>
<path d="M163.691 346.086C164.189 345.085 164.985 344.274 165.962 343.773C166.94 343.271 168.048 343.105 169.125 343.299C170.203 343.575 171.172 344.189 171.897 345.056C172.622 345.922 173.068 346.999 173.173 348.137C173.921 347.578 174.815 347.265 175.739 347.24C176.663 347.214 177.573 347.478 178.348 347.997C179.122 348.571 179.726 349.355 180.091 350.263C180.457 351.17 180.57 352.164 180.418 353.133C180.847 352.812 181.336 352.586 181.854 352.47C182.373 352.355 182.909 352.351 183.429 352.46C183.948 352.569 184.44 352.788 184.873 353.104C185.306 353.419 185.67 353.824 185.943 354.292C186.444 355.3 186.548 356.468 186.233 357.553C185.918 358.638 185.209 359.556 184.253 360.117C184.926 360.206 185.543 360.548 185.984 361.078C186.426 361.607 186.661 362.287 186.644 362.984C186.627 363.682 186.359 364.348 185.892 364.854C185.425 365.36 184.792 365.67 184.116 365.724C184.798 365.776 185.44 366.071 185.934 366.556C186.428 367.041 186.743 367.688 186.826 368.386C186.901 369.093 186.74 369.806 186.369 370.406C185.999 371.007 185.44 371.46 184.786 371.69C185.11 371.88 185.388 372.143 185.599 372.46C185.811 372.776 185.95 373.137 186.007 373.516C186.064 373.895 186.037 374.283 185.929 374.65C185.82 375.017 185.632 375.354 185.38 375.636C185.093 375.869 184.756 376.027 184.397 376.095C184.038 376.163 183.668 376.14 183.32 376.027C182.972 375.914 182.656 375.716 182.399 375.448C182.143 375.181 181.954 374.853 181.849 374.493C181.796 374.597 181.72 374.686 181.627 374.754C181.535 374.822 181.428 374.867 181.316 374.886C181.204 374.904 181.089 374.895 180.98 374.859C180.872 374.824 180.773 374.763 180.692 374.681C180.619 374.586 180.567 374.477 180.539 374.359C180.511 374.242 180.508 374.12 180.529 374.001C180.551 373.883 180.597 373.77 180.664 373.671C180.732 373.572 180.819 373.49 180.92 373.428C180.753 373.618 180.539 373.756 180.302 373.83C180.064 373.904 179.811 373.91 179.57 373.847C179.329 373.784 179.11 373.655 178.935 373.474C178.76 373.293 178.636 373.066 178.576 372.818C179.033 375.323 176.126 377.704 174.01 376.498C174.12 376.775 174.171 377.073 174.161 377.372C174.151 377.672 174.08 377.965 173.952 378.234C173.824 378.503 173.642 378.741 173.419 378.933C173.196 379.125 172.936 379.266 172.656 379.348C171.519 379.565 170.344 379.33 169.368 378.69C168.393 378.062 167.288 377.681 166.142 377.578C165.148 377.699 164.178 377.973 163.265 378.393C161.728 378.871 160.092 378.901 158.54 378.481C156.987 378.061 155.577 377.206 154.468 376.012C154.055 376.506 153.527 376.884 152.934 377.111C152.34 377.337 151.7 377.404 151.074 377.305C150.448 377.206 149.857 376.945 149.357 376.546C148.856 376.148 148.462 375.624 148.212 375.026C148.109 375.639 147.816 376.202 147.378 376.63C146.939 377.059 146.378 377.331 145.777 377.406C145.167 377.416 144.571 377.219 144.082 376.846C143.592 376.472 143.236 375.942 143.068 375.339C143.068 375.887 143.068 376.435 142.992 376.999C140.815 377.531 138.654 374.619 139.583 372.41C138.78 372.374 138.015 372.048 137.423 371.489C136.83 370.931 136.447 370.176 136.341 369.357C136.256 368.529 136.45 367.696 136.89 366.997C137.331 366.299 137.991 365.777 138.761 365.52C137.442 365.085 136.29 364.233 135.468 363.086C134.646 361.939 134.196 360.554 134.183 359.129C134.169 357.704 134.593 356.311 135.393 355.147C136.193 353.984 137.328 353.109 138.639 352.648C139.139 352.443 139.682 352.375 140.215 352.449C140.748 352.523 141.254 352.737 141.683 353.07C141.884 353.254 142.045 353.479 142.156 353.732C142.266 353.984 142.323 354.258 142.323 354.535C142.323 354.811 142.266 355.085 142.156 355.337C142.045 355.59 141.884 355.815 141.683 355.999C141.324 354.701 141.382 353.318 141.848 352.057C142.314 350.796 143.164 349.723 144.27 348.999C145.39 348.381 146.687 348.191 147.929 348.464C149.172 348.736 150.281 349.453 151.059 350.486C150.69 349.913 150.494 349.24 150.494 348.552C150.494 347.865 150.69 347.192 151.059 346.618C151.431 346.079 151.96 345.674 152.57 345.463C153.18 345.252 153.839 345.246 154.453 345.444C154.602 344.579 155.062 343.804 155.742 343.273C156.422 342.742 157.271 342.494 158.121 342.578C158.965 342.769 159.712 343.271 160.222 343.989C160.733 344.707 160.97 345.592 160.891 346.478C160.972 346.155 161.141 345.862 161.377 345.634C161.614 345.405 161.908 345.25 162.226 345.186C162.544 345.123 162.873 345.153 163.176 345.273C163.478 345.393 163.741 345.599 163.935 345.867C164.894 345.601 163.691 346.086 163.691 346.086Z" fill="#367D43"/>
<g opacity="0.4">
<path opacity="0.4" d="M163.082 362.858C163.412 362.604 163.789 362.422 164.189 362.323C164.589 362.223 165.005 362.208 165.411 362.278C165.81 362.348 166.181 362.532 166.483 362.809C166.784 363.086 167.004 363.445 167.116 363.844C167.198 364.26 167.127 364.693 166.916 365.058C166.705 365.423 166.369 365.694 165.974 365.818C165 366.068 164.026 365.238 163.037 365.379C162.689 365.46 162.348 365.57 162.017 365.708C161.283 365.778 160.544 365.682 159.85 365.428C159.156 365.174 158.524 364.767 157.999 364.236C157.571 363.938 157.195 363.567 156.888 363.14C156.735 362.913 156.644 362.649 156.622 362.374C156.601 362.099 156.65 361.823 156.766 361.574C156.999 361.289 157.305 361.076 157.649 360.96C157.993 360.844 158.362 360.828 158.714 360.916C160.162 361.094 161.533 361.686 162.671 362.623C162.671 362.388 162.671 362.153 162.55 361.918L163.082 362.858Z" fill="#FAFAFA"/>
<path opacity="0.4" d="M142.398 361.589C142.773 361.292 143.196 361.065 143.646 360.916C143.914 360.828 144.203 360.845 144.459 360.962C144.715 361.08 144.921 361.291 145.035 361.554C145.15 361.818 145.167 362.115 145.082 362.39C144.997 362.666 144.816 362.899 144.575 363.046C144.035 363.418 143.411 363.639 142.764 363.688C142.109 363.782 141.242 363.813 140.953 363.218C140.858 362.989 140.837 362.736 140.892 362.494C140.946 362.252 141.074 362.034 141.257 361.871C141.638 361.56 142.079 361.336 142.551 361.214L142.398 361.589Z" fill="#FAFAFA"/>
<path opacity="0.4" d="M175.03 350.533C175.687 350.823 176.269 351.267 176.729 351.83C177.189 352.393 177.514 353.059 177.678 353.775C177.77 354.214 177.678 354.762 177.389 354.997C177.101 355.114 176.78 355.114 176.491 354.997L172.701 354.073C173.32 354.269 173.899 354.582 174.406 354.997C174.658 355.209 174.851 355.486 174.965 355.799C175.08 356.112 175.113 356.451 175.061 356.782C174.936 357.153 174.698 357.472 174.383 357.692C174.067 357.912 173.691 358.021 173.31 358.003C172.547 357.939 171.82 357.638 171.225 357.142C170.872 356.935 170.57 356.649 170.34 356.304C170.111 355.96 169.961 355.566 169.901 355.153C169.901 354.308 170.921 353.587 171.545 354.073C170.101 353.668 168.729 353.028 167.481 352.178C167.009 351.89 166.604 351.5 166.294 351.035C166.144 350.806 166.055 350.541 166.036 350.266C166.017 349.991 166.07 349.716 166.187 349.469C167.481 347.041 169.11 350.596 169.901 350.909C171.438 351.504 173.143 349.703 175.03 350.533Z" fill="#FAFAFA"/>
<path opacity="0.4" d="M180.951 360.853C181.021 361.088 181.027 361.338 180.968 361.575C180.909 361.813 180.787 362.029 180.616 362.2C180.524 362.277 180.416 362.332 180.301 362.361C180.186 362.39 180.066 362.393 179.95 362.369C179.834 362.345 179.724 362.295 179.629 362.223C179.533 362.15 179.455 362.057 179.398 361.95C180.276 362.128 181.075 362.589 181.681 363.265C182.199 364.001 182.077 365.27 181.24 365.551C180.976 365.599 180.705 365.592 180.444 365.53C180.182 365.468 179.935 365.353 179.718 365.191C178.349 364.423 177.046 363.538 175.822 362.545C176.187 363.437 175.289 364.455 174.3 364.534C173.348 364.51 172.428 364.182 171.667 363.594C170.677 362.967 169.551 362.028 169.81 360.853C169.991 360.37 170.348 359.978 170.806 359.762C171.264 359.545 171.785 359.521 172.26 359.695C173.196 360.084 174.012 360.728 174.619 361.558C174.102 360.775 174.848 359.585 175.776 359.46C176.231 359.435 176.685 359.524 177.099 359.721C177.513 359.917 177.874 360.215 178.15 360.587C177.1 359.992 176.857 358.442 178.272 358.254C179.17 358.144 180.722 360.07 180.951 360.853Z" fill="#FAFAFA"/>
<path opacity="0.4" d="M152.063 357.377C152.264 357.294 152.479 357.256 152.695 357.266C152.911 357.275 153.122 357.332 153.315 357.432C153.508 357.533 153.678 357.674 153.814 357.847C153.949 358.02 154.048 358.221 154.102 358.436C154.157 358.651 154.166 358.876 154.13 359.095C154.093 359.314 154.012 359.522 153.891 359.707C153.77 359.891 153.612 360.047 153.428 360.163C153.244 360.28 153.038 360.355 152.824 360.384C153.45 360.446 154.028 360.754 154.437 361.245C154.67 361.51 154.79 361.859 154.772 362.216C154.707 362.475 154.559 362.704 154.352 362.866C154.145 363.028 153.891 363.113 153.631 363.108C153.098 363.094 152.576 362.949 152.109 362.686C152.645 362.674 153.173 362.82 153.631 363.108C153.734 363.183 153.822 363.278 153.889 363.389C153.957 363.499 154.001 363.622 154.021 363.751C154.041 363.88 154.036 364.011 154.005 364.137C153.975 364.264 153.92 364.382 153.844 364.486C153.669 364.614 153.466 364.694 153.253 364.719C153.04 364.744 152.824 364.712 152.626 364.627C151.704 364.359 150.858 363.864 150.161 363.187C149.91 363.499 149.589 363.745 149.226 363.903C148.863 364.062 148.468 364.127 148.076 364.095C147.883 364.065 147.699 363.995 147.534 363.89C147.369 363.784 147.226 363.645 147.115 363.481C147.004 363.317 146.927 363.131 146.888 362.935C146.849 362.739 146.849 362.537 146.888 362.341C146.996 362.077 147.172 361.848 147.398 361.679C147.623 361.511 147.889 361.409 148.167 361.386C148.727 361.356 149.286 361.447 149.811 361.652C149.215 361.297 148.753 360.745 148.502 360.086C148.304 359.428 148.73 358.52 149.4 358.614C150.069 358.708 150.526 359.71 151.12 360.086C151.835 359.46 150.465 357.988 152.063 357.377Z" fill="#FAFAFA"/>
<path opacity="0.4" d="M165.548 354.167C165.945 354.504 166.253 354.94 166.442 355.433C166.631 355.926 166.695 356.46 166.629 356.985C166.638 357.571 166.493 358.148 166.209 358.655C165.924 359.162 165.512 359.581 165.015 359.867C164.664 359.982 164.293 360.019 163.928 359.975C163.562 359.93 163.209 359.806 162.893 359.611C162.578 359.415 162.307 359.152 162.098 358.84C161.889 358.527 161.747 358.173 161.682 357.8C161.607 357.034 161.763 356.263 162.127 355.59C162.492 354.918 163.049 354.377 163.722 354.041C164.014 353.911 164.332 353.854 164.65 353.876C164.967 353.897 165.276 353.997 165.548 354.167Z" fill="#FAFAFA"/>
<path opacity="0.4" d="M155.99 352.914L155.64 353.227C155.861 352.943 156.161 352.737 156.501 352.637C156.841 352.537 157.202 352.548 157.535 352.668C157.868 352.789 158.157 353.012 158.361 353.309C158.565 353.605 158.675 353.96 158.675 354.323C158.675 354.687 158.565 355.041 158.361 355.337C158.157 355.634 157.868 355.858 157.535 355.978C157.202 356.098 156.841 356.109 156.501 356.009C156.161 355.909 155.861 355.703 155.64 355.419C155.141 355.678 154.573 355.762 154.023 355.657C153.473 355.553 152.972 355.266 152.596 354.84C152.424 354.625 152.298 354.375 152.226 354.107C152.153 353.839 152.136 353.558 152.174 353.283C152.213 353.007 152.307 352.743 152.45 352.507C152.594 352.271 152.783 352.068 153.007 351.912C153.241 351.772 153.507 351.7 153.777 351.701C154.047 351.703 154.312 351.779 154.545 351.921C154.777 352.063 154.969 352.266 155.1 352.509C155.231 352.752 155.296 353.027 155.29 353.305L155.701 352.835L155.99 352.914Z" fill="#FAFAFA"/>
<path opacity="0.4" d="M145.458 354.668C146.185 355.296 146.746 356.104 147.086 357.017C147.233 357.483 147.203 357.989 147.003 358.433C146.802 358.877 146.446 359.227 146.006 359.413C145.092 359.648 144.225 358.865 143.692 358.066C143.426 357.722 143.239 357.321 143.144 356.893C143.049 356.465 143.049 356.02 143.144 355.592C143.403 354.762 144.575 354.276 145.153 354.918L145.458 354.668Z" fill="#FAFAFA"/>
<path opacity="0.4" d="M160.647 348.967C160.744 348.777 160.877 348.609 161.04 348.474C161.202 348.338 161.39 348.239 161.591 348.182C161.792 348.125 162.003 348.111 162.21 348.141C162.417 348.171 162.615 348.244 162.793 348.357C163.138 348.609 163.39 348.973 163.512 349.39C163.633 349.806 163.616 350.253 163.463 350.659C163.29 351.054 163.019 351.396 162.677 351.649C162.335 351.902 161.934 352.057 161.515 352.099C160.48 352.225 159.247 351.363 159.49 350.314C159.245 350.6 158.934 350.82 158.587 350.954C158.239 351.087 157.865 351.131 157.497 351.082C156.766 350.964 156.066 350.692 155.442 350.283C154.574 349.766 153.646 348.967 153.737 347.95C153.792 347.536 153.984 347.154 154.281 346.869C154.578 346.583 154.961 346.412 155.366 346.384C155.767 346.369 156.168 346.436 156.544 346.581C156.92 346.726 157.265 346.946 157.558 347.229C158.002 347.687 158.469 348.121 158.958 348.529C159.202 348.732 159.494 348.864 159.805 348.911C160.116 348.958 160.433 348.918 160.723 348.795L160.647 348.967Z" fill="#FAFAFA"/>
</g>
<path d="M147.665 397.341H173.797L176.354 370.249H145.108L147.665 397.341Z" fill="#367D43"/>
<path opacity="0.3" d="M147.665 397.341H173.797L176.354 370.249H145.108L147.665 397.341Z" fill="black"/>
<path d="M143.083 371.643H178.637L179.277 368.041H142.444L143.083 371.643Z" fill="#FAFAFA"/>
<path d="M187.678 414.332H199.123L199.458 639.93C199.458 641.066 199.021 642.155 198.242 642.959C197.463 643.763 196.406 644.217 195.303 644.221C194.209 644.221 193.159 643.777 192.381 642.986C191.603 642.194 191.16 641.119 191.148 639.993L187.678 414.332Z" fill="#263238"/>
<path opacity="0.2" d="M187.678 414.332H199.123L199.458 639.93C199.458 641.066 199.021 642.155 198.242 642.959C197.463 643.763 196.406 644.217 195.303 644.221C194.209 644.221 193.159 643.777 192.381 642.986C191.603 642.194 191.16 641.119 191.148 639.993L187.678 414.332Z" fill="#CADBC2"/>
<path d="M125.078 414.332H136.539L136.858 639.93C136.86 640.493 136.754 641.051 136.546 641.571C136.338 642.092 136.033 642.565 135.647 642.963C135.261 643.362 134.802 643.678 134.297 643.894C133.792 644.11 133.25 644.221 132.703 644.221C131.609 644.221 130.559 643.777 129.781 642.986C129.003 642.194 128.56 641.119 128.548 639.993L125.078 414.332Z" fill="#263238"/>
<path opacity="0.2" d="M125.078 414.332H136.539L136.858 639.93C136.86 640.493 136.754 641.051 136.546 641.571C136.338 642.092 136.033 642.565 135.647 642.963C135.261 643.362 134.802 643.678 134.297 643.894C133.792 644.11 133.25 644.221 132.703 644.221C131.609 644.221 130.559 643.777 129.781 642.986C129.003 642.194 128.56 641.119 128.548 639.993L125.078 414.332Z" fill="#CADBC2"/>
<path d="M459.933 414.332H471.394L471.714 639.93C471.716 640.493 471.61 641.051 471.402 641.571C471.194 642.092 470.888 642.565 470.502 642.963C470.116 643.362 469.657 643.678 469.152 643.894C468.647 644.11 468.106 644.221 467.559 644.221C466.464 644.221 465.414 643.777 464.637 642.986C463.859 642.194 463.416 641.119 463.404 639.993L459.933 414.332Z" fill="#263238"/>
<path opacity="0.2" d="M459.933 414.332H471.394L471.714 639.93C471.716 640.493 471.61 641.051 471.402 641.571C471.194 642.092 470.888 642.565 470.502 642.963C470.116 643.362 469.657 643.678 469.152 643.894C468.647 644.11 468.106 644.221 467.559 644.221C466.464 644.221 465.414 643.777 464.637 642.986C463.859 642.194 463.416 641.119 463.404 639.993L459.933 414.332Z" fill="#CADBC2"/>
<path d="M397.349 414.332H408.794L409.129 639.93C409.129 641.066 408.692 642.155 407.913 642.959C407.134 643.763 406.077 644.217 404.974 644.221C403.878 644.221 402.827 643.778 402.046 642.987C401.266 642.195 400.82 641.12 400.804 639.993L397.349 414.332Z" fill="#263238"/>
<path opacity="0.2" d="M397.349 414.332H408.794L409.129 639.93C409.129 641.066 408.692 642.155 407.913 642.959C407.134 643.763 406.077 644.217 404.974 644.221C403.878 644.221 402.827 643.778 402.046 642.987C401.266 642.195 400.82 641.12 400.804 639.993L397.349 414.332Z" fill="#CADBC2"/>
<path d="M125.535 456.614L470.313 453.952V414.332H125.458L125.535 456.614Z" fill="#367D43"/>
<path opacity="0.3" d="M187.678 414.63L188.317 456.113L125.535 456.614L125.458 414.332L187.678 414.63Z" fill="black"/>
<path d="M483.737 404.827C483.737 399.487 481.804 395.164 479.43 395.149H120.238C117.864 395.149 115.931 399.487 115.931 404.827C115.931 410.151 117.864 414.473 120.238 414.505H479.43C481.804 414.473 483.737 410.151 483.737 404.827Z" fill="#263238"/>
<path opacity="0.1" d="M483.737 404.827C483.737 399.487 481.804 395.164 479.43 395.149H120.238C117.864 395.149 115.931 399.487 115.931 404.827C115.931 410.151 117.864 414.473 120.238 414.505H479.43C481.804 414.473 483.737 410.151 483.737 404.827Z" fill="#CADBC2"/>
<path opacity="0.3" d="M208.651 404.827C208.651 399.487 206.718 395.164 204.329 395.149H120.238C117.864 395.149 115.931 399.487 115.931 404.827C115.931 410.151 117.864 414.473 120.238 414.505H204.313C206.718 414.473 208.636 410.151 208.651 404.827Z" fill="black"/>
<path d="M351.704 212.303C350.602 212.303 349.545 211.852 348.766 211.05C347.986 210.249 347.549 209.161 347.549 208.027V197.488H345.494C344.077 197.488 342.718 196.909 341.716 195.878C340.715 194.847 340.152 193.449 340.152 191.992V142.083C340.16 140.634 340.724 139.246 341.722 138.222C342.719 137.199 344.07 136.622 345.479 136.618H421.183C422.596 136.618 423.951 137.195 424.95 138.223C425.949 139.251 426.51 140.645 426.51 142.099V191.992C426.51 193.449 425.947 194.847 424.945 195.878C423.943 196.909 422.585 197.488 421.168 197.488H371.703L354.2 211.41C353.486 211.982 352.609 212.296 351.704 212.303ZM345.494 138.184C344.489 138.188 343.525 138.6 342.813 139.329C342.101 140.059 341.697 141.049 341.689 142.083V191.992C341.693 193.033 342.097 194.03 342.812 194.766C343.528 195.503 344.497 195.918 345.509 195.922H349.04V208.027C349.04 208.746 349.318 209.435 349.811 209.943C350.305 210.451 350.975 210.737 351.673 210.737C352.221 210.723 352.752 210.537 353.195 210.204L371.14 195.922H421.122C422.134 195.918 423.103 195.503 423.819 194.766C424.535 194.03 424.938 193.033 424.942 191.992V142.099C424.942 141.061 424.541 140.065 423.828 139.331C423.114 138.596 422.147 138.184 421.137 138.184H345.494Z" fill="#367D43"/>
<path d="M379.298 130.385H369.816V131.575H379.298V130.385Z" fill="#367D43"/>
<path d="M334.962 144.448H333.79V138.56C333.794 136.386 334.636 134.303 336.131 132.767C337.626 131.232 339.653 130.37 341.765 130.37H362.906V131.544H341.765C339.961 131.544 338.23 132.282 336.954 133.594C335.679 134.907 334.962 136.688 334.962 138.544V144.448Z" fill="#367D43"/>
<path d="M366.269 171.336C369.043 171.336 371.292 169.022 371.292 166.168C371.292 163.314 369.043 161 366.269 161C363.495 161 361.247 163.314 361.247 166.168C361.247 169.022 363.495 171.336 366.269 171.336Z" fill="#367D43"/>
<path d="M388.232 166.168C388.235 167.194 387.942 168.198 387.39 169.052C386.838 169.907 386.053 170.574 385.132 170.968C384.212 171.363 383.199 171.468 382.22 171.27C381.242 171.071 380.343 170.579 379.637 169.855C378.931 169.13 378.45 168.207 378.254 167.201C378.058 166.195 378.157 165.152 378.538 164.204C378.919 163.256 379.565 162.445 380.393 161.875C381.222 161.305 382.197 161 383.194 161C384.527 161 385.806 161.544 386.751 162.513C387.695 163.482 388.228 164.796 388.232 166.168Z" fill="#367D43"/>
<path d="M400.134 171.336C402.908 171.336 405.156 169.022 405.156 166.168C405.156 163.314 402.908 161 400.134 161C397.36 161 395.111 163.314 395.111 166.168C395.111 169.022 397.36 171.336 400.134 171.336Z" fill="#367D43"/>
<path d="M216.124 292.012L222.212 291.714L230.69 388.133H224.282C221.071 387.82 220.325 384.124 219.427 377.171L213.491 309.833C211.999 293.876 214.602 292.012 216.124 292.012Z" fill="#367D43"/>
<path opacity="0.3" d="M216.124 292.012L222.212 291.714L230.69 388.133H224.282C221.071 387.82 220.325 384.124 219.427 377.171L213.491 309.833C211.999 293.876 214.602 292.012 216.124 292.012Z" fill="black"/>
<path d="M225.697 388.133H352.693C353.043 388.108 353.384 388.008 353.693 387.838C354.002 387.668 354.273 387.432 354.487 387.146C354.702 386.861 354.855 386.532 354.936 386.181C355.018 385.83 355.026 385.465 354.961 385.111L347.016 294.737C346.992 293.964 346.691 293.228 346.171 292.67C345.651 292.113 344.949 291.772 344.2 291.714H217.205C216.855 291.739 216.514 291.84 216.205 292.01C215.896 292.18 215.625 292.416 215.411 292.701C215.196 292.987 215.043 293.316 214.962 293.667C214.88 294.018 214.872 294.382 214.937 294.737L222.882 385.111C222.906 385.883 223.207 386.619 223.727 387.177C224.246 387.735 224.948 388.076 225.697 388.133Z" fill="#367D43"/>
<path d="M230.568 376.717H345.905L339.513 301.486H224.175L230.568 376.717Z" fill="#367D43"/>
<path d="M232.151 382.605H345.814C346.562 382.619 347.304 382.468 347.991 382.163C348.678 381.859 349.294 381.407 349.799 380.838C350.303 380.269 350.683 379.596 350.914 378.864C351.146 378.131 351.223 377.357 351.141 376.592L344.779 301.831C344.615 300.206 343.88 298.699 342.71 297.594C341.541 296.489 340.019 295.863 338.432 295.833H224.769C224.023 295.822 223.283 295.974 222.598 296.279C221.914 296.584 221.299 297.034 220.796 297.601C220.293 298.168 219.912 298.837 219.679 299.567C219.445 300.296 219.365 301.067 219.442 301.831L225.804 376.592C225.964 378.219 226.698 379.73 227.868 380.838C229.037 381.947 230.561 382.575 232.151 382.605Z" fill="#263238"/>
<path d="M230.568 376.717H345.905L339.513 301.486H224.175L230.568 376.717Z" fill="#367D43"/>
<path opacity="0.4" d="M230.568 376.717H345.905L339.513 301.486H224.175L230.568 376.717Z" fill="#CADBC2"/>
<path opacity="0.1" d="M263.747 295.864L241.222 382.574H248.801L271.083 295.864H263.747Z" fill="#CADBC2"/>
<path opacity="0.1" d="M275.452 295.864L252.926 382.574H267.948L290.23 295.864H275.452Z" fill="#CADBC2"/>
<path d="M240.796 323.927C240.909 324.681 240.861 325.451 240.654 326.184C240.447 326.917 240.086 327.594 239.597 328.167C239.108 328.74 238.502 329.196 237.823 329.503C237.144 329.809 236.408 329.959 235.667 329.941C234.059 329.898 232.518 329.27 231.317 328.169C230.116 327.069 229.333 325.566 229.107 323.927C228.99 323.172 229.037 322.4 229.243 321.665C229.449 320.931 229.81 320.252 230.299 319.677C230.788 319.101 231.395 318.644 232.075 318.336C232.755 318.029 233.493 317.879 234.236 317.898C235.846 317.941 237.389 318.571 238.59 319.675C239.791 320.779 240.573 322.286 240.796 323.927Z" fill="#367D43"/>
<path opacity="0.3" d="M240.796 323.927C240.909 324.681 240.861 325.451 240.654 326.184C240.447 326.917 240.086 327.594 239.597 328.167C239.108 328.74 238.502 329.196 237.823 329.503C237.144 329.809 236.408 329.959 235.667 329.941C234.059 329.898 232.518 329.27 231.317 328.169C230.116 327.069 229.333 325.566 229.107 323.927C228.99 323.172 229.037 322.4 229.243 321.665C229.449 320.931 229.81 320.252 230.299 319.677C230.788 319.101 231.395 318.644 232.075 318.336C232.755 318.029 233.493 317.879 234.236 317.898C235.846 317.941 237.389 318.571 238.59 319.675C239.791 320.779 240.573 322.286 240.796 323.927Z" fill="black"/>
<path d="M235.666 329.941C236.849 329.971 238.007 329.59 238.954 328.86L238.406 326.981C238.309 326.638 238.11 326.334 237.837 326.112C237.564 325.891 237.231 325.762 236.884 325.744H236.184L236.093 324.961C236.47 324.729 236.77 324.385 236.952 323.973C237.134 323.562 237.19 323.104 237.112 322.659C237.053 322.003 236.77 321.39 236.313 320.928C235.856 320.466 235.255 320.186 234.616 320.137C234.322 320.151 234.034 320.231 233.773 320.37C233.512 320.51 233.283 320.707 233.104 320.947C232.924 321.187 232.797 321.465 232.733 321.76C232.668 322.056 232.667 322.362 232.729 322.659C232.778 323.142 232.943 323.605 233.209 324.006C233.474 324.408 233.832 324.736 234.251 324.961L234.342 325.744H233.642C233.314 325.735 232.995 325.86 232.756 326.092C232.517 326.324 232.376 326.643 232.364 326.981L232.257 328.86C233.274 329.539 234.455 329.913 235.666 329.941Z" fill="#CADBC2"/>
<path d="M245.042 322.784H268.024C269.09 322.784 268.877 321.093 267.826 321.093H244.753C243.703 321.093 243.901 322.784 244.966 322.784H245.042Z" fill="#CADBC2"/>
<path d="M245.438 326.762H275.726C276.426 326.762 276.289 325.634 275.589 325.634H245.301C244.601 325.634 244.722 326.762 245.438 326.762Z" fill="#CADBC2"/>
<path d="M281.418 326.198C281.445 326.363 281.436 326.533 281.392 326.695C281.347 326.857 281.268 327.006 281.16 327.132C281.052 327.258 280.918 327.358 280.768 327.424C280.617 327.49 280.455 327.52 280.292 327.513C279.94 327.5 279.604 327.361 279.34 327.121C279.076 326.882 278.902 326.555 278.846 326.198C278.819 326.031 278.828 325.861 278.872 325.699C278.917 325.536 278.996 325.386 279.104 325.259C279.211 325.132 279.345 325.03 279.495 324.963C279.645 324.895 279.808 324.862 279.972 324.867C280.326 324.881 280.664 325.022 280.928 325.264C281.192 325.507 281.365 325.838 281.418 326.198Z" fill="#263238"/>
<path opacity="0.5" d="M281.418 326.198C281.445 326.363 281.436 326.533 281.392 326.695C281.347 326.857 281.268 327.006 281.16 327.132C281.052 327.258 280.918 327.358 280.768 327.424C280.617 327.49 280.455 327.52 280.292 327.513C279.94 327.5 279.604 327.361 279.34 327.121C279.076 326.882 278.902 326.555 278.846 326.198C278.819 326.031 278.828 325.861 278.872 325.699C278.917 325.536 278.996 325.386 279.104 325.259C279.211 325.132 279.345 325.03 279.495 324.963C279.645 324.895 279.808 324.862 279.972 324.867C280.326 324.881 280.664 325.022 280.928 325.264C281.192 325.507 281.365 325.838 281.418 326.198Z" fill="#CADBC2"/>
<path d="M224.175 301.486L224.739 308.22H340.076L339.513 301.486H224.175Z" fill="#367D43"/>
<path d="M229.472 304.477C229.489 304.651 229.47 304.827 229.417 304.993C229.363 305.159 229.276 305.312 229.161 305.44C229.046 305.569 228.905 305.671 228.749 305.74C228.593 305.809 228.424 305.843 228.254 305.84C227.899 305.821 227.561 305.674 227.299 305.425C227.038 305.176 226.869 304.841 226.824 304.477C226.806 304.305 226.825 304.132 226.878 303.968C226.931 303.804 227.017 303.653 227.13 303.526C227.244 303.398 227.383 303.297 227.537 303.229C227.691 303.161 227.858 303.128 228.026 303.131C228.382 303.145 228.722 303.288 228.986 303.534C229.25 303.781 229.422 304.114 229.472 304.477Z" fill="#CADBC2"/>
<path d="M232.942 304.477C232.962 304.651 232.945 304.826 232.893 304.992C232.842 305.158 232.756 305.311 232.642 305.44C232.528 305.569 232.389 305.671 232.233 305.74C232.077 305.809 231.909 305.843 231.74 305.84C231.384 305.821 231.046 305.674 230.785 305.425C230.523 305.176 230.355 304.841 230.309 304.477C230.292 304.305 230.31 304.132 230.363 303.968C230.416 303.804 230.502 303.653 230.616 303.526C230.729 303.398 230.868 303.297 231.022 303.229C231.177 303.161 231.344 303.128 231.512 303.131C231.865 303.149 232.201 303.293 232.462 303.539C232.723 303.785 232.893 304.117 232.942 304.477Z" fill="#CADBC2"/>
<path d="M236.428 304.477C236.445 304.65 236.426 304.825 236.373 304.989C236.321 305.154 236.235 305.306 236.122 305.434C236.008 305.563 235.87 305.665 235.715 305.735C235.561 305.805 235.394 305.841 235.225 305.84C234.854 305.843 234.494 305.706 234.213 305.455C233.933 305.204 233.751 304.856 233.703 304.477C233.686 304.305 233.704 304.132 233.757 303.968C233.81 303.804 233.896 303.653 234.01 303.526C234.123 303.398 234.262 303.297 234.416 303.229C234.571 303.161 234.738 303.128 234.906 303.131C235.275 303.127 235.633 303.261 235.913 303.509C236.193 303.757 236.376 304.101 236.428 304.477Z" fill="#CADBC2"/>
<path d="M354.002 388.399H224.541C223.019 388.399 221.786 389.668 221.786 391.234V392.925C221.786 394.49 223.019 395.76 224.541 395.76H354.002C355.523 395.76 356.757 394.49 356.757 392.925V391.234C356.757 389.668 355.523 388.399 354.002 388.399Z" fill="#367D43"/>
<path opacity="0.3" d="M354.002 388.399H224.541C223.019 388.399 221.786 389.668 221.786 391.234V392.925C221.786 394.49 223.019 395.76 224.541 395.76H354.002C355.523 395.76 356.757 394.49 356.757 392.925V391.234C356.757 389.668 355.523 388.399 354.002 388.399Z" fill="black"/>
<path d="M273.153 388.368H407.013V390.044C407.013 391.547 406.433 392.989 405.4 394.052C404.366 395.115 402.965 395.713 401.504 395.713H278.678C277.217 395.713 275.816 395.115 274.782 394.052C273.749 392.989 273.169 391.547 273.169 390.044V388.368H273.153Z" fill="#367D43"/>
<path opacity="0.4" d="M273.153 388.368H407.013V390.044C407.013 391.547 406.433 392.989 405.4 394.052C404.366 395.115 402.965 395.713 401.504 395.713H278.678C277.217 395.713 275.816 395.115 274.782 394.052C273.749 392.989 273.169 391.547 273.169 390.044V388.368H273.153Z" fill="#CADBC2"/>
<path opacity="0.3" d="M333.47 388.603C333.474 389.578 333.852 390.511 334.522 391.201C335.192 391.89 336.1 392.279 337.047 392.283H353.424C354.372 392.283 355.282 391.895 355.953 391.205C356.623 390.515 357 389.579 357 388.603H333.47Z" fill="black"/>
<path d="M345.905 376.889H230.659L230.035 369.56H345.281L345.905 376.889Z" fill="#367D43"/>
<path d="M330.457 373.695H250.399L250.354 373.037H330.411L330.457 373.695Z" fill="#CADBC2"/>
<path d="M332.725 373.726C332.725 374.039 332.557 374.29 332.1 374.29C331.867 374.292 331.639 374.221 331.446 374.086L331.568 373.836C331.711 373.951 331.888 374.011 332.07 374.008C332.298 374.008 332.42 373.914 332.405 373.742C332.39 373.569 332.283 373.475 331.933 373.475H331.522V372.536H332.511V372.802H331.796V373.209H331.964C332.481 373.209 332.694 373.428 332.725 373.726Z" fill="#CADBC2"/>
<path d="M332.831 373.131C332.829 373.105 332.832 373.079 332.84 373.054C332.848 373.029 332.862 373.007 332.879 372.988C332.896 372.969 332.917 372.953 332.94 372.943C332.963 372.932 332.988 372.927 333.014 372.927C333.041 372.925 333.068 372.929 333.094 372.938C333.12 372.947 333.143 372.962 333.163 372.981C333.183 373 333.199 373.023 333.21 373.049C333.221 373.075 333.227 373.103 333.227 373.131C333.231 373.156 333.23 373.182 333.224 373.206C333.218 373.231 333.206 373.254 333.19 373.273C333.174 373.293 333.154 373.308 333.131 373.319C333.109 373.33 333.084 373.335 333.059 373.334C333.031 373.337 333.003 373.333 332.976 373.324C332.95 373.315 332.925 373.3 332.904 373.281C332.883 373.263 332.865 373.239 332.853 373.214C332.84 373.188 332.833 373.16 332.831 373.131ZM332.922 374.07C332.917 374.044 332.919 374.017 332.926 373.991C332.933 373.965 332.946 373.941 332.964 373.921C332.981 373.901 333.004 373.886 333.028 373.877C333.053 373.867 333.079 373.864 333.105 373.867C333.159 373.867 333.211 373.888 333.25 373.925C333.29 373.963 333.314 374.015 333.318 374.07C333.32 374.096 333.317 374.123 333.309 374.147C333.3 374.172 333.287 374.194 333.27 374.214C333.253 374.233 333.232 374.248 333.209 374.258C333.186 374.269 333.161 374.274 333.135 374.274C333.108 374.276 333.081 374.273 333.055 374.263C333.029 374.254 333.006 374.239 332.986 374.22C332.965 374.201 332.95 374.178 332.939 374.152C332.928 374.126 332.922 374.099 332.922 374.07Z" fill="#CADBC2"/>
<path d="M333.455 373.397C333.455 372.833 333.683 372.504 334.079 372.504C334.475 372.504 334.81 372.833 334.87 373.397C334.931 373.961 334.642 374.29 334.231 374.29C334.015 374.274 333.812 374.171 333.668 374.005C333.523 373.838 333.447 373.62 333.455 373.397ZM334.551 373.397C334.551 372.974 334.338 372.786 334.109 372.786C333.881 372.786 333.729 372.974 333.775 373.397C333.82 373.82 333.988 374.008 334.216 374.008C334.444 374.008 334.581 373.82 334.551 373.397Z" fill="#CADBC2"/>
<path d="M335.068 373.397C335.068 372.833 335.297 372.504 335.708 372.504C335.924 372.521 336.126 372.623 336.271 372.789C336.416 372.956 336.492 373.174 336.484 373.397C336.484 373.961 336.256 374.29 335.86 374.29C335.464 374.29 335.129 373.961 335.068 373.397ZM336.164 373.397C336.164 372.974 335.951 372.786 335.723 372.786C335.495 372.786 335.358 372.974 335.388 373.397C335.418 373.82 335.601 374.008 335.829 374.008C336.058 374.008 336.195 373.82 336.164 373.397Z" fill="#CADBC2"/>
<path d="M234.236 373.992V374.258H232.988V374.055L233.597 373.397C233.648 373.353 233.69 373.298 233.719 373.236C233.748 373.174 233.763 373.106 233.764 373.037C233.764 372.88 233.642 372.786 233.429 372.786C233.355 372.782 233.282 372.798 233.216 372.83C233.149 372.863 233.092 372.913 233.049 372.974L232.82 372.786C232.891 372.691 232.984 372.615 233.09 372.566C233.196 372.517 233.313 372.496 233.429 372.504C233.794 372.504 234.053 372.692 234.068 373.006C234.076 373.109 234.06 373.213 234.02 373.309C233.98 373.404 233.918 373.488 233.84 373.554L233.429 373.992H234.236Z" fill="#CADBC2"/>
<path d="M234.388 373.131C234.384 373.106 234.384 373.08 234.391 373.055C234.397 373.031 234.409 373.008 234.425 372.988C234.441 372.969 234.461 372.953 234.484 372.943C234.506 372.932 234.531 372.927 234.555 372.927C234.583 372.925 234.612 372.929 234.638 372.938C234.665 372.947 234.69 372.961 234.711 372.98C234.732 372.999 234.749 373.022 234.762 373.048C234.774 373.074 234.782 373.102 234.784 373.131C234.786 373.157 234.783 373.183 234.774 373.208C234.766 373.232 234.753 373.255 234.736 373.274C234.719 373.293 234.698 373.308 234.675 373.319C234.652 373.329 234.626 373.334 234.601 373.334C234.574 373.337 234.547 373.333 234.521 373.324C234.495 373.314 234.471 373.3 234.451 373.281C234.431 373.261 234.415 373.238 234.404 373.213C234.394 373.187 234.388 373.159 234.388 373.131ZM234.464 374.07C234.459 374.044 234.46 374.017 234.468 373.991C234.475 373.965 234.488 373.941 234.506 373.921C234.523 373.901 234.545 373.886 234.57 373.877C234.594 373.867 234.621 373.864 234.647 373.867C234.701 373.867 234.753 373.888 234.792 373.925C234.832 373.963 234.856 374.015 234.86 374.07C234.862 374.096 234.859 374.122 234.851 374.147C234.842 374.172 234.829 374.194 234.812 374.214C234.795 374.233 234.774 374.248 234.751 374.258C234.728 374.269 234.703 374.274 234.677 374.274C234.645 374.287 234.61 374.291 234.576 374.287C234.542 374.283 234.509 374.27 234.481 374.25C234.452 374.23 234.429 374.203 234.413 374.172C234.397 374.141 234.388 374.106 234.388 374.07H234.464Z" fill="#CADBC2"/>
<path d="M236.214 373.726C236.214 374.039 236.047 374.29 235.59 374.29C235.357 374.292 235.129 374.221 234.936 374.086L235.058 373.836C235.201 373.951 235.378 374.011 235.56 374.008C235.788 374.008 235.91 373.914 235.895 373.742C235.88 373.569 235.773 373.475 235.423 373.475H235.012V372.536H236.001V372.802H235.271V373.209H235.438C235.91 373.209 236.184 373.428 236.214 373.726Z" fill="#CADBC2"/>
<path d="M236.367 373.397C236.367 372.833 236.58 372.504 236.991 372.504C237.207 372.521 237.409 372.623 237.554 372.789C237.699 372.956 237.775 373.174 237.767 373.397C237.767 373.961 237.539 374.29 237.143 374.29C236.747 374.29 236.412 373.961 236.367 373.397ZM237.447 373.397C237.447 372.974 237.234 372.786 237.006 372.786C236.778 372.786 236.641 372.974 236.671 373.397C236.702 373.82 236.884 374.008 237.112 374.008C237.341 374.008 237.432 373.82 237.432 373.397H237.447Z" fill="#CADBC2"/>
<path d="M343.637 375.981H338.569L338.112 370.751H343.196L343.637 375.981ZM339.33 375.104H342.724L342.45 371.612H339.056L339.33 375.104Z" fill="#CADBC2"/>
<path d="M285.147 372.457H239.38L239.532 374.258H285.299L285.147 372.457Z" fill="#263238"/>
<path d="M286.821 373.303C286.833 373.517 286.803 373.73 286.732 373.931C286.661 374.132 286.551 374.316 286.409 374.472C286.266 374.627 286.094 374.751 285.903 374.836C285.712 374.92 285.507 374.963 285.299 374.963C284.862 374.951 284.443 374.776 284.122 374.47C283.8 374.165 283.596 373.751 283.549 373.303C283.536 373.09 283.566 372.876 283.637 372.675C283.708 372.474 283.818 372.29 283.961 372.135C284.103 371.979 284.275 371.855 284.466 371.771C284.657 371.686 284.863 371.643 285.071 371.643C285.509 371.652 285.929 371.826 286.251 372.132C286.574 372.438 286.776 372.854 286.821 373.303Z" fill="#263238"/>
<path d="M286.821 373.303C286.833 373.517 286.803 373.73 286.732 373.931C286.661 374.132 286.551 374.316 286.409 374.472C286.266 374.627 286.094 374.751 285.903 374.836C285.712 374.92 285.507 374.963 285.299 374.963C284.862 374.951 284.443 374.776 284.122 374.47C283.8 374.165 283.596 373.751 283.549 373.303C283.536 373.09 283.566 372.876 283.637 372.675C283.708 372.474 283.818 372.29 283.961 372.135C284.103 371.979 284.275 371.855 284.466 371.771C284.657 371.686 284.863 371.643 285.071 371.643C285.509 371.652 285.929 371.826 286.251 372.132C286.574 372.438 286.776 372.854 286.821 373.303Z" fill="#CADBC2"/>
<path d="M330.822 256.589C334.933 257.327 338.805 259.095 342.097 261.735C345.388 264.376 347.997 267.809 349.695 271.732C355.935 285.482 360.912 305.448 365.584 307.547C370.257 309.645 390.713 288.927 390.713 288.927C390.713 288.927 386.542 275.225 392.783 273.079C399.023 270.934 397.775 261.35 403.604 263.37C409.433 265.39 412.736 273.94 412.34 278.654C411.945 283.368 401.108 294.063 401.108 294.063C401.108 294.063 381.55 329.862 361.536 326.589C341.522 323.316 330.776 275.318 330.776 275.318C330.776 275.318 325.206 255.853 330.822 256.589Z" fill="#EEC8C0"/>
<path opacity="0.1" d="M336.362 292.952C340.745 305.104 344.353 313.889 352.678 321.688C343.668 306.795 344.642 280.126 344.642 280.126L336.362 292.952Z" fill="black"/>
<path d="M262.408 260.833C269.545 258.728 276.785 257.008 284.097 255.681L284.34 255.884L284.721 256.26L287.932 258.797L296.668 264.2L303.837 265.359L310.777 263.62L315.221 257.262L316.043 253.598V253.488C323.835 253.813 331.507 255.58 338.691 258.703C339.954 259.307 341.035 260.252 341.817 261.438C342.6 262.624 343.055 264.006 343.135 265.437C343.71 273.891 344.726 282.308 346.179 290.65C349.071 308.22 340.213 347.542 336.773 361.715C336.397 363.267 335.576 364.667 334.417 365.733C333.258 366.8 331.815 367.484 330.274 367.697C310.664 370.459 290.788 370.591 271.144 368.088C269.29 367.839 267.586 366.91 266.344 365.472C265.103 364.033 264.408 362.182 264.387 360.258C264.143 337.755 258.801 287.486 256.777 269.43C256.574 267.543 257.029 265.643 258.06 264.069C259.091 262.495 260.632 261.348 262.408 260.833Z" fill="#367D43"/>
<path d="M262.408 260.833C269.545 258.728 276.785 257.008 284.097 255.681L284.34 255.884L284.721 256.26L287.932 258.797L296.668 264.2L303.837 265.359L310.777 263.62L315.221 257.262L316.043 253.598V253.488C323.835 253.813 331.507 255.58 338.691 258.703C339.954 259.307 341.035 260.252 341.817 261.438C342.6 262.624 343.055 264.006 343.135 265.437C343.71 273.891 344.726 282.308 346.179 290.65C349.071 308.22 340.213 347.542 336.773 361.715C336.397 363.267 335.576 364.667 334.417 365.733C333.258 366.8 331.815 367.484 330.274 367.697C310.664 370.459 290.788 370.591 271.144 368.088C269.29 367.839 267.586 366.91 266.344 365.472C265.103 364.033 264.408 362.182 264.387 360.258C264.143 337.755 258.801 287.486 256.777 269.43C256.574 267.543 257.029 265.643 258.06 264.069C259.091 262.495 260.632 261.348 262.408 260.833Z" fill="#263238"/>
<path d="M284.736 197.316C281.89 205.835 277.126 215.106 279.196 223.86C281.266 232.614 290.443 240.741 298.753 243.576C308.388 246.88 319.605 250.45 326.743 242.996C330.274 239.316 328.265 231.893 324.977 227.963C323.305 226.024 321.1 224.653 318.654 224.032C316.208 223.411 313.636 223.57 311.279 224.486C311.85 220.005 311.571 215.453 310.458 211.081C309.416 205.353 306.208 200.285 301.539 196.987C296.79 193.855 286.577 191.851 284.736 197.316Z" fill="#263238"/>
<path d="M287.78 255.039C293.426 248.931 291.159 221.526 291.159 221.526L307.688 233.068C307.688 233.068 308.662 250.028 312.604 253.301C313.532 254.068 314.902 253.41 315.998 253.488L314.993 257.811L311.949 263.166L307.718 266.298H301.463L295.816 264.654L289.408 259.956L284.173 255.618C285.39 255.446 286.958 255.916 287.78 255.039Z" fill="#EEC8C0"/>
<path opacity="0.1" d="M309.133 244.421C298.266 243.153 293.274 237.343 291.006 232.755L291.478 228.182L307.992 239.723L309.133 244.421Z" fill="black"/>
<path d="M284.69 210.58C288.176 224.674 289.363 230.734 297.719 236.685C310.305 245.658 326.393 238.142 327.078 223.265C327.687 209.844 321.873 188.938 307.292 186.01C304.069 185.326 300.73 185.502 297.592 186.52C294.454 187.539 291.621 189.366 289.363 191.828C287.104 194.29 285.495 197.305 284.688 200.587C283.88 203.869 283.902 207.309 284.751 210.58H284.69Z" fill="#EEC8C0"/>
<path d="M307.444 210.001C307.672 211.159 308.433 211.989 309.164 211.848C309.894 211.708 310.336 210.643 310.138 209.484C309.94 208.325 309.133 207.495 308.403 207.62C307.672 207.746 307.353 208.889 307.444 210.001Z" fill="#263238"/>
<path d="M320.274 207.526C320.488 208.716 321.264 209.515 321.994 209.39C322.725 209.265 323.166 208.168 322.953 207.01C322.74 205.851 321.964 205.021 321.233 205.177C320.503 205.334 320.061 206.367 320.274 207.526Z" fill="#263238"/>
<path d="M320.914 205.303L323.471 203.972C323.471 203.972 322.497 206.43 320.914 205.303Z" fill="#263238"/>
<path d="M316.713 210.408C318.221 212.861 320.044 215.094 322.131 217.048C321.629 217.581 321.021 217.996 320.349 218.266C319.676 218.537 318.956 218.655 318.235 218.614L316.713 210.408Z" fill="#ED893E"/>
<path d="M301.889 208.356C302.032 208.354 302.17 208.304 302.283 208.214C302.395 208.123 302.476 207.997 302.513 207.855C302.952 206.818 303.595 205.886 304.402 205.118C305.209 204.349 306.162 203.762 307.201 203.392C307.372 203.332 307.513 203.204 307.593 203.036C307.673 202.869 307.685 202.676 307.627 202.499C307.601 202.413 307.558 202.333 307.502 202.264C307.446 202.196 307.376 202.139 307.298 202.098C307.22 202.057 307.135 202.033 307.048 202.026C306.96 202.02 306.873 202.032 306.79 202.061C305.538 202.497 304.393 203.207 303.434 204.142C302.474 205.078 301.724 206.216 301.234 207.479C301.187 207.654 301.209 207.84 301.294 207.998C301.38 208.157 301.522 208.274 301.691 208.325C301.754 208.349 301.821 208.36 301.889 208.356Z" fill="#263238"/>
<path d="M322.984 200.73C323.105 200.722 323.222 200.683 323.326 200.618C323.429 200.552 323.516 200.462 323.577 200.354C323.659 200.192 323.676 200.003 323.625 199.827C323.574 199.652 323.459 199.504 323.303 199.414C322.366 198.843 321.306 198.518 320.218 198.469C319.129 198.42 318.046 198.648 317.063 199.133C316.912 199.21 316.797 199.346 316.743 199.51C316.689 199.674 316.7 199.854 316.774 200.01C316.812 200.091 316.867 200.164 316.934 200.223C317.001 200.282 317.079 200.326 317.163 200.353C317.247 200.379 317.336 200.387 317.424 200.377C317.511 200.366 317.596 200.337 317.672 200.291C318.45 199.944 319.296 199.791 320.142 199.842C320.988 199.894 321.81 200.15 322.542 200.589C322.675 200.675 322.827 200.724 322.984 200.73Z" fill="#263238"/>
<path d="M308.144 207.871L310.716 206.54C310.716 206.54 309.727 208.904 308.144 207.871Z" fill="#263238"/>
<path d="M328.387 182.877C330.167 184.171 331.534 185.979 332.315 188.073C333.095 190.167 333.254 192.452 332.77 194.638C332.253 196.58 331.142 198.412 331.05 200.432C330.995 201.516 331.352 202.58 332.045 203.398C332.738 204.216 333.713 204.725 334.764 204.817C331.652 205.366 328.468 205.318 325.373 204.676C322.329 203.846 319.483 201.544 319.377 198.631C319.441 197.582 319.557 196.537 319.727 195.499C319.793 194.956 319.72 194.403 319.515 193.898C319.309 193.392 318.978 192.951 318.555 192.618C316.865 191.475 314.628 192.712 312.588 192.978C308.859 193.495 305.176 189.94 305.633 186.573C306.089 183.206 315.054 172.605 328.387 182.877Z" fill="#263238"/>
<path d="M314.567 178.023C319.559 180.857 332.938 195.061 296.836 192.728C296.836 192.728 296.912 215.951 285.573 219.099L255.863 214.057C255.863 214.057 267.674 151.37 314.567 178.023Z" fill="#263238"/>
<path d="M259.79 199.963C256.944 208.466 252.18 217.752 254.25 226.506C256.32 235.26 265.498 243.372 273.808 246.222C283.442 249.526 294.659 253.097 301.797 245.643C305.313 241.947 303.319 234.54 300.032 230.594C298.358 228.657 296.152 227.289 293.706 226.671C291.26 226.053 288.689 226.214 286.334 227.133C286.905 222.652 286.626 218.099 285.512 213.728C285.005 210.876 283.956 208.154 282.426 205.72C280.895 203.285 278.913 201.185 276.593 199.54C271.799 196.486 261.632 194.497 259.79 199.963Z" fill="#263238"/>
<path d="M282.94 222.372C284.279 224.742 286.463 226.483 289.028 227.227C292.483 228.135 294.157 224.94 293.137 221.605C292.194 218.614 289.287 214.526 285.847 215.027C285.255 215.133 284.689 215.358 284.181 215.69C283.674 216.021 283.235 216.453 282.89 216.959C282.545 217.465 282.301 218.037 282.171 218.64C282.041 219.244 282.028 219.868 282.133 220.477C282.268 221.16 282.543 221.806 282.94 222.372Z" fill="#EEC8C0"/>
<path d="M319.422 222.654C317.651 223.46 315.735 223.877 313.798 223.877C311.861 223.877 309.946 223.46 308.175 222.654C308.175 222.654 307.718 229.779 315.937 229.2C316.804 229.2 319.422 228.73 319.422 228.73C319.018 226.726 319.018 224.658 319.422 222.654Z" fill="#263238"/>
<path d="M308.54 225.112C308.284 224.32 308.16 223.489 308.175 222.654C311.129 223.939 314.412 224.192 317.52 223.374V225.708C317.52 225.708 312.086 226.694 308.54 225.112Z" fill="#CADBC2"/>
<path d="M309.316 226.678C309.917 226.609 310.522 226.573 311.127 226.569C313.746 226.496 316.316 227.304 318.448 228.871C317.611 228.996 316.454 229.153 315.937 229.2C312.269 229.45 310.336 228.182 309.316 226.678Z" fill="#C13B37"/>
<path d="M319.163 253.488C319.163 253.488 315.298 252.142 313.745 253.488C313.745 253.488 314.034 263.808 305.937 265.108C297.84 266.408 285.406 255.117 285.406 255.117C283.557 254.692 281.62 255.006 279.987 255.994L311.812 291.683C324.582 277.871 319.163 253.488 319.163 253.488Z" fill="#367D43"/>
<path d="M260.886 294.94C257.842 290.665 251.556 272.891 258.405 263.245C265.254 253.598 306.546 311.634 306.546 311.634C313.517 308.079 345.89 296.914 345.89 296.914C345.89 296.914 346.97 285.278 351.734 282.444C356.498 279.609 358.69 272.155 362.738 276.571C366.787 280.987 371.535 293.234 365.295 297.869C361.276 300.824 357.105 303.553 352.8 306.043C352.8 306.043 327.884 324.162 309.788 330.426C291.691 336.69 273.671 312.699 260.886 294.94Z" fill="#EEC8C0"/>
<path opacity="0.1" d="M260.886 294.94C257.842 290.665 251.556 272.891 258.405 263.245C265.254 253.598 306.546 311.634 306.546 311.634C313.517 308.079 345.89 296.914 345.89 296.914C345.89 296.914 346.97 285.278 351.734 282.444C356.498 279.609 358.69 272.155 362.738 276.571C366.787 280.987 371.535 293.234 365.295 297.869C361.276 300.824 357.105 303.553 352.8 306.043C352.8 306.043 327.884 324.162 309.788 330.426C291.691 336.69 273.671 312.699 260.886 294.94Z" fill="#CADBC2"/>
<path opacity="0.1" d="M260.886 294.94C257.842 290.665 251.556 272.891 258.405 263.245C265.254 253.598 306.546 311.634 306.546 311.634C313.517 308.079 345.89 296.914 345.89 296.914C345.89 296.914 346.97 285.278 351.734 282.444C356.498 279.609 358.69 272.155 362.738 276.571C366.787 280.987 371.535 293.234 365.295 297.869C361.276 300.824 357.105 303.553 352.8 306.043C352.8 306.043 327.884 324.162 309.788 330.426C291.691 336.69 273.671 312.699 260.886 294.94Z" fill="#CADBC2"/>
<path d="M338.782 371.252L336.834 361.746C336.834 361.746 286.227 367.149 264.63 362.2L261.814 371.283L338.782 371.252Z" fill="#263238"/>
<path d="M288.921 229.811C288.939 230.373 288.794 230.929 288.504 231.407C288.214 231.884 287.792 232.262 287.292 232.492C286.793 232.722 286.238 232.793 285.698 232.697C285.159 232.601 284.66 232.342 284.264 231.953C283.868 231.564 283.594 231.062 283.477 230.512C283.36 229.962 283.404 229.388 283.605 228.864C283.806 228.34 284.154 227.89 284.605 227.57C285.056 227.251 285.589 227.077 286.136 227.07C286.857 227.057 287.555 227.338 288.076 227.851C288.598 228.364 288.901 229.068 288.921 229.811Z" fill="#CADBC2"/>
<path d="M459.979 254.13C458.424 257.518 456.438 260.677 454.073 263.526C455.885 265.453 459.248 264.732 459.248 264.732L459.979 254.13Z" fill="#A02724"/>
<path d="M498.212 271.858L488.09 279.688L474.27 290.258C475 291.885 475.428 293.638 475.534 295.426C475.975 299.372 476.417 302.301 467.848 304.603C466.94 304.809 466.109 305.281 465.456 305.962C464.802 306.642 464.354 307.503 464.164 308.439C463.799 310.773 465.138 313.607 472.992 315.111C480.603 316.399 488.415 315.154 495.289 311.556C498.653 309.88 498.683 307.813 497.329 304.321C493.265 294.267 495.472 281.661 498.212 271.858Z" fill="#FF8B7B"/>
<path d="M457.3 253.034C456.996 254.256 457.3 255.383 457.879 255.54C458.457 255.696 459.233 254.835 459.538 253.614C459.842 252.392 459.538 251.265 458.959 251.092C458.381 250.92 457.589 251.797 457.3 253.034Z" fill="#263238"/>
<path d="M466.28 251.186C466.147 251.186 466.017 251.149 465.902 251.08C465.787 251.012 465.692 250.913 465.625 250.795C464.998 249.693 464.112 248.772 463.048 248.115C461.985 247.458 460.777 247.087 459.537 247.036C459.336 247.036 459.142 246.954 458.999 246.807C458.857 246.66 458.776 246.461 458.776 246.253C458.776 246.046 458.857 245.847 458.999 245.7C459.142 245.553 459.336 245.47 459.537 245.47C461.046 245.527 462.517 245.972 463.815 246.765C465.113 247.559 466.196 248.675 466.965 250.012C467.06 250.196 467.083 250.41 467.03 250.611C466.976 250.813 466.849 250.985 466.676 251.092C466.553 251.157 466.417 251.19 466.28 251.186Z" fill="#263238"/>
<path d="M457.224 270.354C457.555 273.854 458.665 277.228 460.467 280.216C462.27 283.203 464.717 285.723 467.619 287.58C469.581 288.848 471.737 289.764 473.997 290.289C476.744 290.924 479.595 290.921 482.341 290.279C485.087 289.637 487.66 288.372 489.871 286.578C498.683 279.719 499.703 270.433 502.762 254.835C503.508 251.199 503.35 247.428 502.305 243.872C501.259 240.315 499.359 237.086 496.781 234.484C494.202 231.883 491.028 229.992 487.551 228.986C484.074 227.98 480.407 227.892 476.888 228.73C461.166 232.614 455.854 255.681 457.224 270.354Z" fill="#FF8B7B"/>
<path opacity="0.2" d="M467.619 287.533C469.581 288.801 471.737 289.717 473.997 290.242H474.271L473.312 287.11C473.312 287.11 472.003 289.35 467.619 287.533Z" fill="black"/>
<path d="M507.176 266.063C504.619 271.435 501.453 276.822 496.629 280.157C494.848 281.41 481.333 280.486 481.333 280.486C481.47 275.788 475.655 259.502 472.855 254.037C471.972 256.276 473.22 259.345 472.109 261.412C470.587 261.115 443.511 251.092 455.443 231.063C463.875 216.969 486.492 215.685 495.883 229.623C497.897 229.087 500.015 229.128 502.008 229.74C504.001 230.353 505.793 231.514 507.191 233.099C509.927 236.354 511.533 240.453 511.757 244.75C512.442 252.126 510.311 259.424 507.176 266.063Z" fill="#263238"/>
<path d="M482.124 258.045C481.845 261.625 480.289 264.971 477.756 267.441C474.499 270.573 470.42 267.254 469.917 262.743C469.461 258.719 471.363 252.831 475.336 251.421C479.308 250.012 482.474 253.692 482.124 258.045Z" fill="#FF8B7B"/>
<path d="M351.217 610.004L337.199 602.926L347.564 567.785L364.641 577.588L351.217 610.004Z" fill="#FF8B7B"/>
<path opacity="0.2" d="M368.324 567.941L350.349 557.277L343.226 582.599L359.451 590.46L368.324 567.941Z" fill="black"/>
<path d="M336.362 600.122L352.419 607.749C352.712 607.901 352.939 608.161 353.055 608.477C353.17 608.793 353.166 609.143 353.043 609.456L347.792 625.507C347.677 625.891 347.488 626.246 347.236 626.553C346.985 626.859 346.676 627.111 346.328 627.292C345.98 627.473 345.6 627.58 345.211 627.607C344.822 627.634 344.432 627.581 344.063 627.449C338.523 624.677 335.982 623.017 328.935 619.619C324.582 617.568 314.674 612.697 308.494 610.395C302.315 608.093 304.872 600.624 307.703 600.921C320.442 602.315 327.93 602.002 333.47 600.013C334.412 599.663 335.448 599.702 336.362 600.122Z" fill="#263238"/>
<path d="M328.098 601.219C329.38 601.735 330.712 602.113 332.07 602.346C332.137 602.362 332.207 602.356 332.27 602.328C332.333 602.299 332.386 602.251 332.42 602.19C332.47 602.14 332.505 602.077 332.521 602.008C332.537 601.938 332.534 601.866 332.511 601.798C332.192 601.266 329.27 596.63 327.23 596.552C326.998 596.538 326.767 596.589 326.561 596.7C326.354 596.81 326.181 596.975 326.058 597.178C325.819 597.462 325.659 597.807 325.595 598.176C325.531 598.545 325.564 598.926 325.693 599.277C326.234 600.208 327.09 600.9 328.098 601.219ZM331.446 601.469C328.661 600.78 326.773 599.903 326.393 598.964C326.327 598.736 326.32 598.495 326.373 598.264C326.427 598.033 326.538 597.82 326.697 597.648C326.757 597.545 326.842 597.459 326.943 597.398C327.044 597.338 327.159 597.306 327.276 597.304C328.341 597.335 330.274 599.637 331.446 601.469Z" fill="#367D43"/>
<path d="M332.085 602.346H332.253C332.316 602.335 332.376 602.309 332.428 602.271C332.481 602.233 332.525 602.184 332.557 602.127C332.557 601.939 334.734 597.82 333.866 595.753C333.761 595.481 333.595 595.238 333.38 595.044C333.166 594.851 332.91 594.713 332.633 594.641C332.343 594.525 332.022 594.512 331.724 594.606C331.426 594.7 331.167 594.894 330.989 595.158C329.985 596.63 330.868 600.671 331.933 602.174C331.943 602.213 331.962 602.249 331.989 602.279C332.015 602.309 332.048 602.332 332.085 602.346ZM332.603 595.471C332.738 595.528 332.861 595.613 332.963 595.721C333.065 595.829 333.145 595.957 333.196 596.098C333.403 597.871 333.051 599.666 332.192 601.219C331.311 599.501 331.094 597.504 331.583 595.628C331.583 595.424 331.903 595.252 332.42 595.409L332.603 595.471Z" fill="#367D43"/>
<path d="M458 428.364C458 428.364 375.386 413.737 364.991 460.232C356.97 492.789 353.089 506.037 342.876 578.23L364.686 583.288C364.686 583.288 399.845 509.342 401.899 477.896C426.556 482.187 482.657 494.214 494.604 472.744C500.59 461.826 504.588 449.874 506.4 437.478L458 428.364Z" fill="#367D43"/>
<g opacity="0.3">
<path opacity="0.3" d="M458 428.364C458 428.364 375.386 413.737 364.991 460.232C356.97 492.789 353.089 506.037 342.876 578.23L364.686 583.288C364.686 583.288 399.845 509.342 401.899 477.896C426.556 482.187 482.657 494.214 494.604 472.744C500.59 461.826 504.588 449.874 506.4 437.478L458 428.364Z" fill="black"/>
</g>
<path d="M367.472 588.284L339.543 578.23L342.161 565.216L370.805 577.196L367.472 588.284Z" fill="#367D43"/>
<path d="M293.396 604.805L278.663 596.395L293.305 567.284L311.462 574.879L293.396 604.805Z" fill="#FF8B7B"/>
<path opacity="0.2" d="M316.53 565.921L300.352 552.547L289.561 576.46L304.415 586.78L316.53 565.921Z" fill="black"/>
<path d="M280.17 592.715L294.918 602.769C295.166 602.963 295.338 603.242 295.403 603.555C295.467 603.869 295.419 604.196 295.268 604.476L287.658 619.525C287.489 619.887 287.25 620.21 286.956 620.474C286.662 620.739 286.319 620.939 285.948 621.064C285.577 621.188 285.185 621.234 284.796 621.198C284.407 621.162 284.03 621.046 283.686 620.856C278.617 617.255 276.365 615.219 269.881 610.787C265.893 608.078 256.822 601.72 251.054 598.463C245.286 595.205 248.923 588.252 251.678 588.988C264.067 592.355 271.464 593.232 277.278 592.12C278.281 591.918 279.32 592.132 280.17 592.715Z" fill="#263238"/>
<path d="M271.844 592.496C273.036 593.203 274.296 593.781 275.604 594.219C275.666 594.247 275.736 594.254 275.802 594.237C275.868 594.22 275.927 594.18 275.969 594.125C276.026 594.086 276.07 594.032 276.097 593.968C276.124 593.904 276.132 593.833 276.121 593.765C275.893 593.169 273.686 588.143 271.677 587.751C271.449 587.701 271.212 587.713 270.99 587.788C270.768 587.862 270.569 587.995 270.414 588.174C270.143 588.423 269.939 588.74 269.822 589.094C269.704 589.448 269.678 589.827 269.744 590.194C270.151 591.198 270.897 592.015 271.844 592.496ZM275.117 593.263C272.468 592.136 270.733 591.04 270.551 590.006C270.518 589.768 270.547 589.525 270.636 589.302C270.724 589.079 270.868 588.885 271.053 588.738C271.127 588.649 271.221 588.58 271.328 588.539C271.434 588.498 271.549 588.485 271.662 588.503C272.666 588.691 274.173 591.259 275.117 593.263Z" fill="#367D43"/>
<path d="M275.619 594.234H275.771C275.835 594.238 275.899 594.226 275.957 594.198C276.016 594.171 276.067 594.13 276.106 594.078C276.182 593.905 278.891 590.163 278.343 587.986C278.282 587.699 278.154 587.431 277.971 587.205C277.789 586.979 277.556 586.801 277.293 586.686C277.023 586.524 276.708 586.46 276.399 586.506C276.089 586.551 275.804 586.703 275.589 586.937C274.386 588.237 274.645 592.355 275.482 594.015C275.486 594.06 275.501 594.104 275.525 594.142C275.548 594.18 275.581 594.212 275.619 594.234ZM277.141 587.516C277.268 587.594 277.379 587.699 277.465 587.823C277.551 587.947 277.612 588.087 277.643 588.237C277.588 590.02 276.968 591.735 275.878 593.122C275.264 591.29 275.351 589.285 276.121 587.516C276.197 587.328 276.502 587.203 276.989 587.422L277.141 587.516Z" fill="#367D43"/>
<path d="M431.959 423.838C431.381 423.728 341.385 398.688 326.469 451.149C306.013 514.995 290.839 569.194 290.839 569.194L308.494 582.364C308.494 582.364 353.53 518.252 360.242 474.31C388.369 471.053 455.58 496.406 467.528 474.952C477.315 457.413 477.786 431.825 477.786 431.825L431.959 423.838Z" fill="#367D43"/>
<path opacity="0.3" d="M431.959 423.838C431.381 423.728 341.385 398.688 326.469 451.149C306.013 514.995 290.839 569.194 290.839 569.194L308.494 582.364C308.494 582.364 353.53 518.252 360.242 474.31C388.369 471.053 455.58 496.406 467.528 474.952C477.315 457.413 477.786 431.825 477.786 431.825L431.959 423.838Z" fill="black"/>
<path d="M311.112 585.747L287.232 569.304L291.098 558.78L316.759 573.187L311.112 585.747Z" fill="#367D43"/>
<path d="M515.654 316.708C514.132 322.972 512.29 329.158 510.296 335.343C508.302 341.529 506.019 347.652 503.341 353.916C500.619 360.359 497.248 366.49 493.28 372.207C490.949 375.56 488.154 378.546 484.985 381.07C483.037 382.618 480.884 383.872 478.593 384.798C477.278 385.312 475.917 385.689 474.529 385.925L473.418 386.113C472.84 386.113 472.201 386.207 471.637 386.207C470.681 386.192 469.727 386.082 468.791 385.878C467.404 385.584 466.052 385.138 464.758 384.547C463.708 384.1 462.691 383.577 461.714 382.981C460.096 381.947 458.541 380.812 457.057 379.583C454.469 377.406 444.82 361.746 437.956 350.784L446.129 343.768C454.987 352.021 463.982 360.509 472.992 367.759C475.305 369.451 465.549 362.67 467.726 364.111C468.702 364.74 469.719 365.3 470.77 365.786C471.637 366.193 472.49 366.397 472.292 366.24C472.105 366.178 471.91 366.146 471.714 366.146C471.496 366.131 471.277 366.131 471.059 366.146C471.17 366.104 471.277 366.051 471.379 365.99C471.884 365.685 472.359 365.328 472.794 364.925C474.328 363.455 475.682 361.798 476.827 359.992C479.698 355.332 482.124 350.397 484.072 345.256C486.294 339.806 488.105 334.294 489.856 328.515C491.606 322.737 493.235 316.974 494.711 311.055C496.187 305.135 517.237 310.413 515.654 316.708Z" fill="#367D43"/>
<path opacity="0.6" d="M515.654 316.708C514.132 322.972 512.29 329.158 510.296 335.343C508.302 341.529 506.019 347.652 503.341 353.916C500.619 360.359 497.248 366.49 493.28 372.207C490.949 375.56 488.154 378.546 484.985 381.07C483.037 382.618 480.884 383.872 478.593 384.798C477.278 385.312 475.917 385.689 474.529 385.925L473.418 386.113C472.84 386.113 472.201 386.207 471.637 386.207C470.681 386.192 469.727 386.082 468.791 385.878C467.404 385.584 466.052 385.138 464.758 384.547C463.708 384.1 462.691 383.577 461.714 382.981C460.096 381.947 458.541 380.812 457.057 379.583C454.469 377.406 444.82 361.746 437.956 350.784L446.129 343.768C454.987 352.021 463.982 360.509 472.992 367.759C475.305 369.451 465.549 362.67 467.726 364.111C468.702 364.74 469.719 365.3 470.77 365.786C471.637 366.193 472.49 366.397 472.292 366.24C472.105 366.178 471.91 366.146 471.714 366.146C471.496 366.131 471.277 366.131 471.059 366.146C471.17 366.104 471.277 366.051 471.379 365.99C471.884 365.685 472.359 365.328 472.794 364.925C474.328 363.455 475.682 361.798 476.827 359.992C479.698 355.332 482.124 350.397 484.072 345.256C486.294 339.806 488.105 334.294 489.856 328.515C491.606 322.737 493.235 316.974 494.711 311.055C496.187 305.135 517.237 310.413 515.654 316.708Z" fill="#CADBC2"/>
<path d="M446.737 344.708L438.93 327.654L424.09 336.377C424.09 336.377 433.694 352.209 439.097 350.643L446.737 344.708Z" fill="#FF8B7B"/>
<path d="M426.814 323.614L420.072 326.511C419.675 326.677 419.323 326.94 419.048 327.278C418.773 327.616 418.583 328.019 418.494 328.45C418.406 328.881 418.421 329.329 418.54 329.752C418.658 330.176 418.876 330.563 419.174 330.88L424.212 336.299L439.051 327.576L428.808 323.598C428.167 323.336 427.452 323.342 426.814 323.614Z" fill="#FF8B7B"/>
<path d="M370.729 376.091L354.748 374.086L349.436 391.312C349.436 391.312 367.7 391.782 370.744 386.708L370.729 376.091Z" fill="#FF8B7B"/>
<path d="M342.831 379.959L339.787 386.52C339.591 386.976 339.504 387.474 339.533 387.972C339.562 388.469 339.706 388.953 339.953 389.381C340.2 389.81 340.543 390.172 340.954 390.437C341.364 390.702 341.83 390.863 342.313 390.905L349.39 391.359L354.702 374.133L344.368 378.455C343.697 378.751 343.151 379.284 342.831 379.959Z" fill="#FF8B7B"/>
<path d="M520.737 315.8C520.022 311.979 514.497 307.327 510.753 306.685L508.272 306.247C503.261 305.439 498.21 304.917 493.143 304.681C483.005 304.096 472.842 304.096 462.703 304.681C458 305.135 453.389 305.918 449.721 306.654H449.584C447.5 307.116 445.626 308.283 444.263 309.969C442.9 311.656 442.126 313.764 442.065 315.956C441.715 327.779 440.832 351.802 438.762 375.464C437.164 393.959 433.618 411.983 432.02 424.511L506.476 437.446C511.499 422.914 513.234 409.775 517.876 382.777C520.6 366.538 523.705 331.522 520.737 315.8Z" fill="#367D43"/>
<path opacity="0.6" d="M520.737 315.8C520.022 311.979 514.497 307.327 510.753 306.685L508.272 306.247C503.261 305.439 498.21 304.917 493.143 304.681C483.005 304.096 472.842 304.096 462.703 304.681C458 305.135 453.389 305.918 449.721 306.654H449.584C447.5 307.116 445.626 308.283 444.263 309.969C442.9 311.656 442.126 313.764 442.065 315.956C441.715 327.779 440.832 351.802 438.762 375.464C437.164 393.959 433.618 411.983 432.02 424.511L506.476 437.446C511.499 422.914 513.234 409.775 517.876 382.777C520.6 366.538 523.705 331.522 520.737 315.8Z" fill="#CADBC2"/>
<path d="M449.34 308.502C450.777 309.147 452.075 310.079 453.159 311.243C454.244 312.408 455.094 313.781 455.66 315.285C456.226 316.789 456.497 318.394 456.457 320.006C456.417 321.618 456.068 323.206 455.428 324.679C449.34 338.773 439.143 360.994 434.759 368.793C433.1 371.549 431.426 374.305 429.554 377.061C428.626 378.455 427.576 379.818 426.51 381.243C425.901 381.947 425.414 382.605 424.699 383.357L423.679 384.453L423.101 385.064C421.475 386.613 419.537 387.774 417.424 388.462C416.308 388.838 415.169 389.137 414.014 389.355C412.137 389.665 410.239 389.828 408.337 389.84C405.05 389.84 382.463 391.923 370.927 387.773L370.318 374.979C381.824 375.918 401.899 369.513 404.487 369.231C405.515 369.094 406.533 368.88 407.531 368.589C407.859 368.491 408.176 368.354 408.474 368.182C408.581 368.182 408.474 368.057 408.003 368.386C407.833 368.493 407.675 368.619 407.531 368.762L407.698 368.542L408.17 367.963C408.49 367.619 408.855 367.055 409.205 366.601C409.89 365.63 410.59 364.58 411.29 363.469C412.675 361.245 414.015 358.771 415.339 356.281C417.972 351.285 420.407 345.992 422.781 340.621C424.455 336.831 429.417 325.305 433.633 314.985C434.242 313.491 435.133 312.137 436.255 311C437.378 309.864 438.708 308.968 440.169 308.365C441.63 307.761 443.194 307.463 444.768 307.486C446.342 307.51 447.897 307.855 449.34 308.502Z" fill="#367D43"/>
<path opacity="0.2" d="M439.249 358.285C439.462 365.285 439.371 362.983 439.615 370.359C459.492 342.061 454.378 322.408 454.378 322.408L439.249 358.285Z" fill="black"/>
<path opacity="0.6" d="M449.34 308.502C450.777 309.147 452.075 310.079 453.159 311.243C454.244 312.408 455.094 313.781 455.66 315.285C456.226 316.789 456.497 318.394 456.457 320.006C456.417 321.618 456.068 323.206 455.428 324.679C449.34 338.773 439.143 360.994 434.759 368.793C433.1 371.549 431.426 374.305 429.554 377.061C428.626 378.455 427.576 379.818 426.51 381.243C425.901 381.947 425.414 382.605 424.699 383.357L423.679 384.453L423.101 385.064C421.475 386.613 419.537 387.774 417.424 388.462C416.308 388.838 415.169 389.137 414.014 389.355C412.137 389.665 410.239 389.828 408.337 389.84C405.05 389.84 382.463 391.923 370.927 387.773L370.318 374.979C381.824 375.918 401.899 369.513 404.487 369.231C405.515 369.094 406.533 368.88 407.531 368.589C407.859 368.491 408.176 368.354 408.474 368.182C408.581 368.182 408.474 368.057 408.003 368.386C407.833 368.493 407.675 368.619 407.531 368.762L407.698 368.542L408.17 367.963C408.49 367.619 408.855 367.055 409.205 366.601C409.89 365.63 410.59 364.58 411.29 363.469C412.675 361.245 414.015 358.771 415.339 356.281C417.972 351.285 420.407 345.992 422.781 340.621C424.455 336.831 429.417 325.305 433.633 314.985C434.242 313.491 435.133 312.137 436.255 311C437.378 309.864 438.708 308.968 440.169 308.365C441.63 307.761 443.194 307.463 444.768 307.486C446.342 307.51 447.897 307.855 449.34 308.502Z" fill="#CADBC2"/>
<path d="M471.698 253.692C470.509 254.771 469.54 256.083 468.847 257.55C468.155 259.018 467.753 260.613 467.665 262.242C467.467 266.58 471.561 267.755 475.108 265.719C478.334 263.871 482.276 259.455 480.785 255.446C479.293 251.437 474.681 250.967 471.698 253.692Z" fill="#FAB27B"/>
<path d="M485.244 260.457C484.94 267.567 480.769 273.157 473.86 272.844C466.95 272.531 463.206 266.58 463.571 259.471C463.936 252.361 468.061 246.77 474.971 247.083C481.88 247.397 485.518 253.347 485.244 260.457Z" fill="#367D43"/>
<path opacity="0.7" d="M485.244 260.457C484.94 267.567 480.769 273.157 473.86 272.844C466.95 272.531 463.206 266.58 463.571 259.471C463.936 252.361 468.061 246.77 474.971 247.083C481.88 247.397 485.518 253.347 485.244 260.457Z" fill="#CADBC2"/>
<path d="M482.063 260.316C481.835 265.343 478.897 269.274 474.012 269.054C469.126 268.835 466.539 264.638 466.767 259.658C466.995 254.679 469.918 250.701 474.803 250.92C479.689 251.139 482.276 255.258 482.063 260.316Z" fill="#367D43"/>
<path opacity="0.3" d="M482.063 260.316C481.835 265.343 478.897 269.274 474.012 269.054C469.126 268.835 466.539 264.638 466.767 259.658C466.995 254.679 469.918 250.701 474.803 250.92C479.689 251.139 482.276 255.258 482.063 260.316Z" fill="#CADBC2"/>
<path d="M474.057 245.862C475.473 239.88 481.074 223.938 492.687 221.714C493.245 221.616 493.819 221.669 494.353 221.866C494.886 222.064 495.361 222.4 495.731 222.842L497.116 224.408C497.44 224.794 497.677 225.25 497.808 225.743C497.94 226.236 497.962 226.752 497.875 227.255C497.787 227.758 497.592 228.234 497.302 228.649C497.013 229.064 496.637 229.407 496.202 229.654C488.927 233.579 483.179 239.952 479.917 247.71C479.688 248.264 479.273 248.714 478.747 248.978C478.222 249.243 477.621 249.304 477.056 249.151L475.762 248.79C475.169 248.618 474.662 248.218 474.345 247.674C474.028 247.13 473.925 246.482 474.057 245.862Z" fill="#367D43"/>
<path opacity="0.2" d="M474.057 245.862C475.473 239.88 481.074 223.938 492.687 221.714C493.245 221.616 493.819 221.669 494.353 221.866C494.886 222.064 495.361 222.4 495.731 222.842L497.116 224.408C497.44 224.794 497.677 225.25 497.808 225.743C497.94 226.236 497.962 226.752 497.875 227.255C497.787 227.758 497.592 228.234 497.302 228.649C497.013 229.064 496.637 229.407 496.202 229.654C488.927 233.579 483.179 239.952 479.917 247.71C479.688 248.264 479.273 248.714 478.747 248.978C478.222 249.243 477.621 249.304 477.056 249.151L475.762 248.79C475.169 248.618 474.662 248.218 474.345 247.674C474.028 247.13 473.925 246.482 474.057 245.862Z" fill="#CADBC2"/>
<path d="M392.311 420.863H382.418V464.303H392.311V420.863Z" fill="#263238"/>
<path d="M392.311 420.863H382.418V464.303H392.311V420.863Z" fill="#263238"/>
<path d="M420.97 434.127C399.196 426.301 375.487 426.301 353.713 434.127C351.523 434.973 349.106 434.962 346.923 434.096C344.74 433.23 342.942 431.569 341.872 429.429C339.847 425.044 342.557 419.359 348.051 417.386C373.48 408.241 401.172 408.241 426.601 417.386C432.081 419.343 434.79 425.044 432.781 429.429C431.703 431.555 429.91 433.204 427.736 434.069C425.563 434.933 423.157 434.954 420.97 434.127Z" fill="#263238"/>
<path opacity="0.4" d="M420.97 434.127C399.196 426.301 375.487 426.301 353.713 434.127C351.523 434.973 349.106 434.962 346.923 434.096C344.74 433.23 342.942 431.569 341.872 429.429C339.847 425.044 342.557 419.359 348.051 417.386C373.48 408.241 401.172 408.241 426.601 417.386C432.081 419.343 434.79 425.044 432.781 429.429C431.703 431.555 429.91 433.204 427.736 434.069C425.563 434.933 423.157 434.954 420.97 434.127Z" fill="#263238"/>
<path d="M410.651 638.834C410.651 640.401 410.199 641.933 409.353 643.236C408.507 644.539 407.304 645.555 405.897 646.155C404.49 646.755 402.941 646.911 401.447 646.606C399.953 646.3 398.581 645.545 397.504 644.437C396.427 643.329 395.693 641.917 395.396 640.38C395.099 638.843 395.252 637.25 395.835 635.802C396.417 634.354 397.405 633.116 398.671 632.246C399.937 631.375 401.426 630.91 402.95 630.91C404.992 630.91 406.951 631.745 408.395 633.231C409.84 634.717 410.651 636.732 410.651 638.834Z" fill="#263238"/>
<path d="M523.735 638.834C523.735 640.402 524.188 641.935 525.034 643.238C525.881 644.541 527.085 645.557 528.493 646.156C529.901 646.756 531.45 646.912 532.945 646.605C534.439 646.298 535.811 645.541 536.888 644.432C537.964 643.322 538.697 641.908 538.992 640.37C539.287 638.832 539.133 637.238 538.547 635.791C537.962 634.343 536.973 633.107 535.704 632.238C534.436 631.369 532.945 630.907 531.422 630.91C530.408 630.9 529.403 631.098 528.465 631.492C527.527 631.887 526.674 632.47 525.959 633.209C525.243 633.947 524.677 634.825 524.295 635.791C523.914 636.757 523.723 637.791 523.735 638.834Z" fill="#263238"/>
<path d="M457.042 636.297C457.042 637.868 457.496 639.404 458.346 640.709C459.196 642.014 460.405 643.03 461.817 643.626C463.23 644.223 464.783 644.375 466.279 644.061C467.775 643.748 469.148 642.984 470.221 641.866C471.294 640.748 472.02 639.328 472.307 637.785C472.594 636.241 472.428 634.645 471.831 633.199C471.234 631.753 470.233 630.522 468.955 629.663C467.676 628.803 466.178 628.354 464.651 628.373C462.625 628.398 460.689 629.244 459.265 630.727C457.84 632.21 457.041 634.212 457.042 636.297Z" fill="#263238"/>
<path d="M548.209 628.185C548.04 629.087 547.564 629.898 546.867 630.471C546.17 631.045 545.297 631.345 544.404 631.317L464.119 630.19L388.917 631.944C387.983 631.963 387.075 631.622 386.373 630.988C385.67 630.354 385.224 629.472 385.121 628.517C385.018 627.561 385.266 626.6 385.816 625.823C386.367 625.046 387.179 624.509 388.095 624.317L429.189 616.111C433.45 615.293 437.776 614.879 442.111 614.874H486.249C490.579 614.878 494.899 615.292 499.155 616.111L545.302 623.722C546.258 623.926 547.098 624.508 547.642 625.343C548.185 626.177 548.389 627.198 548.209 628.185Z" fill="#263238"/>
<path d="M477.756 545.908H450.451V626.792H477.756V545.908Z" fill="#263238"/>
<path d="M473.844 494.668H454.378V546.315H473.844V494.668Z" fill="#263238"/>
<path opacity="0.2" d="M454.378 504.236L473.844 509.279V494.668H454.378V504.236Z" fill="black"/>
<path d="M456.28 457.914V494.433H352.632C350.381 494.438 348.169 493.829 346.222 492.668C344.275 491.506 342.662 489.834 341.548 487.821C340.434 485.809 339.858 483.528 339.88 481.213C339.903 478.897 340.521 476.628 341.674 474.639C344.601 469.548 348.766 465.329 353.759 462.396C358.752 459.464 364.401 457.919 370.15 457.914H456.28Z" fill="#367D43"/>
<path opacity="0.2" d="M456.28 457.914V494.433H352.632C350.381 494.438 348.169 493.829 346.222 492.668C344.275 491.506 342.662 489.834 341.548 487.821C340.434 485.809 339.858 483.528 339.88 481.213C339.903 478.897 340.521 476.628 341.674 474.639C344.601 469.548 348.766 465.329 353.759 462.396C358.752 459.464 364.401 457.919 370.15 457.914H456.28Z" fill="#CADBC2"/>
<path d="M477.147 322.674C476.888 323.849 476.72 325.043 476.645 326.245L465.245 493.807H449.523L460.907 326.245C460.9 326.114 460.9 325.984 460.907 325.853L477.147 322.674Z" fill="#367D43"/>
<path opacity="0.2" d="M477.147 322.674C476.888 323.849 476.72 325.043 476.645 326.245L465.245 493.807H449.523L460.907 326.245C460.9 326.114 460.9 325.984 460.907 325.853L477.147 322.674Z" fill="#CADBC2"/>
<path d="M549.442 494.465V494.652H546.794C547.68 494.653 548.565 494.59 549.442 494.465Z" fill="#263238"/>
<path d="M584.448 321.609L584.631 301.69C584.73 296.176 582.818 290.824 579.273 286.688L567.843 273.424L563.749 240.24C563.463 237.76 562.293 235.478 560.465 233.835C558.638 232.192 556.282 231.305 553.856 231.345H525.455C523.166 231.374 520.936 232.094 519.041 233.417C517.147 234.739 515.673 236.606 514.801 238.784L500.479 274.473L476.797 288.864C473.807 290.669 471.209 293.085 469.165 295.965C467.12 298.845 465.672 302.126 464.91 305.605L460.588 325.963H460.922L477.117 322.831C476.858 324.006 476.69 325.199 476.614 326.401L465.215 493.963H554.358C555.249 493.964 556.139 493.901 557.022 493.775C561.496 493.07 565.609 490.831 568.692 487.42C571.775 484.009 573.648 479.627 574.007 474.983L584.204 324.82C584.273 323.746 584.273 322.668 584.204 321.594L584.448 321.609ZM509.946 308.94L482.23 311.634L481.028 311.759L484.864 298.793L503.904 289.71L510.251 286.672L511.255 289.71L511.422 290.227L512.351 293.03L509.946 308.94ZM564.403 309.285L561.009 308.377C561.009 307.281 560.887 306.153 560.827 305.041C560.477 298.777 560.187 292.983 560.187 292.983L560.598 290.931L561.451 286.625L573.748 298.808V311.775L564.403 309.285Z" fill="#367D43"/>
</svg>
