<svg width="689" height="543" viewBox="0 0 689 543" fill="none" xmlns="http://www.w3.org/2000/svg">
<path d="M55.1201 119.46V157.47H86.8907H118.661V119.46V81.45H86.8907H55.1201V119.46ZM113.915 119.641L113.685 151.588H86.9672H60.3259L60.4025 119.913C60.4025 102.446 60.479 88.147 60.479 87.966C60.479 87.8755 72.5748 87.785 87.2735 87.785H114.068L113.915 119.641Z" fill="#367D43"/>
<path d="M329.189 85.8845C328.194 88.2375 328.117 184.439 329.189 187.697L329.878 189.96L341.974 190.231L354.07 190.503L353.84 192.765C353.381 196.838 349.859 204.44 347.409 206.521C346.108 207.607 343.275 208.965 341.208 209.508L337.304 210.503L340.06 212.494C341.514 213.58 344.5 214.847 346.72 215.39C357.285 217.743 368.079 210.051 373.668 196.114L375.888 190.503L428.099 190.05L480.386 189.598V137.108V84.6175L405.209 84.346C331.486 84.165 330.031 84.165 329.189 85.8845ZM363.256 96.5635C373.744 100.727 378.797 115.931 373.668 127.696C371.141 133.488 369.381 135.388 364.328 137.56C352.692 142.719 340.825 135.841 338.299 122.447C335.007 105.252 349.017 90.7715 363.256 96.5635ZM471.582 110.863C471.582 111.587 470.817 112.401 469.898 112.673C468.903 112.944 449.228 113.035 426.032 112.944C386.682 112.673 383.926 112.582 383.697 111.044C383.467 109.596 385.917 109.505 427.486 109.505C465.917 109.505 471.582 109.686 471.582 110.863ZM471.582 130.773C471.582 131.949 466.147 132.13 427.563 132.13C388.979 132.13 383.543 131.949 383.543 130.773C383.543 129.596 388.979 129.415 427.563 129.415C466.147 129.415 471.582 129.596 471.582 130.773ZM471.2 150.321C471.506 150.864 471.582 151.407 471.353 151.678C470.97 152.221 338.223 152.131 337.763 151.678C336.002 149.506 342.203 149.325 404.596 149.325C450.606 149.325 470.893 149.597 471.2 150.321ZM470.434 171.136C470.74 171.679 470.817 172.222 470.664 172.493C470.434 172.765 346.797 173.127 340.136 172.855C339.601 172.855 339.141 172.222 339.141 171.498C339.141 170.321 346.95 170.14 404.52 170.14C450.07 170.14 470.128 170.412 470.434 171.136Z" fill="#367D43"/>
<path d="M266.796 112.039C264.729 112.944 260.901 115.297 258.375 117.288C252.327 122.175 245.514 126.157 240.231 128.057C236.71 129.234 235.332 129.324 232.346 128.419C226.758 126.79 216.27 127.967 208.002 131.315C196.212 135.931 184.805 146.248 179.446 157.108C177.992 160.004 176.92 160.999 175.006 161.452C167.504 163.171 163.982 177.561 166.049 198.376L166.891 207.064L164.212 212.313C161.073 218.467 160.154 221.906 159.465 229.508C158.47 241.454 162.221 254.667 169.264 263.717C174.47 270.504 179.982 273.582 187.867 274.215L193.915 274.668L194.987 278.921C195.753 282.089 196.442 283.265 197.437 283.265C198.432 283.265 199.274 284.623 200.193 287.519C200.958 289.962 201.801 292.134 202.03 292.496C202.336 292.858 204.939 292.406 207.848 291.41C210.834 290.415 218.719 287.881 225.38 285.89C236.021 282.813 237.705 282.451 238.241 283.718C239.236 285.618 241.227 285.437 249.954 282.451C261.667 278.378 260.901 279.102 259.447 273.038C258.528 268.875 257.61 268.785 247.81 271.952C238.471 275.03 237.475 275.573 237.169 277.926C236.94 279.736 235.332 280.46 222.394 284.804C202.949 291.229 203.025 291.229 202.183 288.605C200.499 283.175 200.499 282.632 202.107 282.089C203.944 281.546 204.021 279.826 202.49 273.853C201.418 269.781 201.418 269.147 202.566 267.156C203.485 265.436 203.944 261.997 204.174 254.848C204.48 246.25 204.25 243.173 202.49 233.49C201.341 227.245 200.423 221.363 200.499 220.367C200.958 207.516 200.269 199.19 197.743 186.882C197.437 185.253 197.743 185.072 201.188 185.344C207.772 185.887 215.274 180.095 216.423 173.669L216.805 171.135L222.088 174.303C230.815 179.461 240.002 181.995 251.868 182.538C263.657 183.081 271.083 181.995 279.045 178.647C281.954 177.38 284.94 176.113 285.552 175.932C286.394 175.57 287.237 176.565 288.155 178.918C290.146 183.715 292.519 192.041 292.06 192.584C291.906 192.855 290.758 192.584 289.61 191.95C287.007 190.683 282.643 190.412 277.437 191.226C272.385 191.95 271.007 192.674 271.007 194.394C271.007 195.118 270.088 197.199 268.94 198.919C266.337 202.991 264.959 207.607 264.882 212.403C264.882 216.747 264.959 216.657 261.131 215.299C258.528 214.394 252.863 215.299 246.892 217.652C245.59 218.105 245.131 217.652 244.365 215.209C243.294 211.679 239.849 207.154 234.873 202.629L231.351 199.462L225.15 200.186C221.782 200.548 217.801 201.453 216.346 202.177C211.982 204.349 207.848 208.783 205.475 213.851C203.561 217.924 203.255 219.462 203.332 225.797C203.332 234.757 205.322 240.096 210.375 245.164C221.628 256.658 238.853 251.771 244.748 235.571C245.437 233.671 245.973 229.508 246.05 226.069L246.126 220.005L248.959 218.467C254.165 215.661 264.882 216.566 264.882 219.734C264.882 222.992 268.634 230.594 272.002 234.123C276.672 238.92 281.265 240.458 286.854 239.101C289.074 238.558 291.983 237.291 293.131 236.205C294.356 235.209 295.581 234.395 295.811 234.395C296.653 234.395 296.27 241.001 295.122 247.517C293.667 255.662 293.591 255.21 296.5 255.21C300.404 255.21 305.61 253.038 309.514 249.961C322.376 239.372 324.596 211.589 313.725 195.389C310.356 190.231 304.921 185.796 301.093 184.982C299.715 184.71 298.567 184.258 298.567 183.986C298.567 183.715 300.328 181.271 302.471 178.466C307.907 171.226 311.505 162.266 312.194 154.031C313.801 136.745 309.514 126.066 299.792 122.989C295.964 121.813 289.686 123.17 286.854 125.885C285.782 126.79 284.787 127.605 284.557 127.605C284.404 127.605 284.021 125.433 283.792 122.899C283.179 117.378 281.495 114.211 277.82 112.039C274.528 110.048 271.696 110.048 266.796 112.039ZM291.906 195.932C293.514 197.109 295.122 206.792 296.117 220.729C296.729 230.051 296.729 230.141 294.739 232.313C288.691 239.282 277.744 238.558 271.925 230.865C266.337 223.535 264.882 212.584 268.251 203.987C270.394 198.466 271.39 197.561 273.15 199.462C276.825 203.263 285.859 205.073 287.849 202.267C289.304 200.276 288.155 196.566 285.552 195.027C284.251 194.213 283.256 193.217 283.256 192.765C283.256 191.95 289.38 194.213 291.906 195.932ZM218.566 206.521C211.906 215.933 224.078 217.381 231.734 208.15L234.26 205.073L237.093 207.878C241.303 211.86 244.212 218.919 244.212 225.073C244.212 232.947 242.834 237.019 238.394 242.268C231.504 250.413 223.083 251.771 214.432 245.979C204.863 239.463 201.877 224.078 208.155 213.308C210.834 208.602 212.365 207.064 216.27 204.711C220.174 202.358 221.016 202.991 218.566 206.521Z" fill="#367D43"/>
<path d="M538.645 116.926C537.803 117.469 535.429 117.65 532.75 117.288C529.917 117.016 528.157 117.107 527.774 117.74C527.468 118.464 527.161 118.464 526.779 117.831C525.86 116.021 524.329 118.283 523.87 121.813C523.563 124.437 523.793 125.704 524.712 126.609C525.401 127.243 525.937 128.51 525.937 129.415C525.937 132.492 530.683 135.569 531.449 132.854C531.984 131.134 534.358 132.763 534.358 134.845C534.358 135.84 534.051 136.655 533.592 136.655C533.209 136.655 532.827 137.288 532.827 138.012C532.827 139.822 533.439 139.732 534.97 137.741C535.736 136.836 535.965 136.655 535.659 137.288C534.894 138.465 535.583 140.275 536.731 140.275C537.114 140.275 537.42 139.551 537.42 138.646C537.42 137.379 537.573 137.288 538.185 138.465C538.645 139.37 538.798 138.736 538.415 136.474C538.032 133.487 538.185 132.944 539.87 132.22C540.865 131.768 542.319 130.41 543.008 129.143C543.851 127.514 544.693 126.971 545.841 127.333C547.142 127.695 547.372 127.424 547.296 125.252C547.219 123.08 547.142 122.989 546.836 124.618C546.683 125.795 546.147 126.7 545.688 126.7C545.305 126.7 545.152 126.066 545.382 125.252C545.611 124.528 545.535 124.075 545.152 124.347C544.31 124.98 542.626 119.641 543.238 118.464C543.468 118.012 543.085 117.65 542.473 117.65C541.784 117.65 541.248 117.197 541.248 116.745C541.248 115.568 540.482 115.659 538.645 116.926Z" fill="#367D43"/>
<path d="M557.018 150.501L556.559 152.945H529.841C500.367 152.945 502.205 152.583 502.205 158.737C502.205 160.366 502.587 162.99 503.047 164.619L503.889 167.425H580.598H657.306L658.301 164.257C659.297 160.999 659.756 154.302 659.067 153.488C658.837 153.216 637.861 152.945 612.445 152.945C581.669 152.854 565.746 152.583 564.751 151.949C563.679 151.225 563.449 151.225 563.755 151.949C564.138 152.583 563.832 152.764 563.143 152.402C562.454 152.13 561.918 151.406 561.918 150.863C561.918 150.23 561.612 150.23 560.999 150.954C559.621 152.583 558.856 152.311 558.167 150.049C557.554 148.148 557.554 148.148 557.018 150.501Z" fill="#367D43"/>
<path d="M54.3545 201.815V236.205H97.6084H140.862V201.815V167.425H97.6084H54.3545V201.815ZM136.116 201.996L135.886 230.323L131.752 230.594C129.532 230.775 127.082 230.594 126.393 230.323C125.704 229.961 116.824 229.78 106.642 229.87C92.326 229.87 88.1155 229.689 87.7327 228.784C87.3499 227.879 87.1968 227.879 86.814 228.694C86.5078 229.508 84.058 229.87 78.3929 229.87C72.5747 229.87 70.4312 229.599 70.4312 228.694C70.4312 227.879 70.278 227.879 69.8187 228.694C69.4359 229.418 67.1393 229.961 64.2302 230.051L59.3306 230.323L59.1009 203.173C59.0244 188.24 59.1009 175.57 59.254 174.937C59.5603 174.122 68.4407 173.851 97.9911 173.76H136.269L136.116 201.996Z" fill="#367D43"/>
<path d="M435.219 234.214C435.372 235.119 435.142 236.477 434.759 237.201C434.3 238.106 434.07 238.106 434.07 237.291C434.07 236.748 433.687 236.205 433.228 236.205C432.769 236.205 432.539 236.839 432.845 237.563C433.075 238.287 432.692 240.368 432.003 242.269C430.089 247.608 430.472 264.803 432.616 270.685C433.764 273.762 434.683 275.12 435.678 275.12C437.439 275.12 437.515 272.948 435.984 269.328C435.372 267.97 434.836 266.341 434.912 265.708C434.912 265.165 435.219 265.527 435.601 266.522C435.984 267.608 436.29 261.454 436.29 250.866C436.367 236.929 436.597 233.49 437.362 233.49C438.204 233.49 438.357 234.848 438.051 239.554C437.898 242.993 437.975 252.314 438.281 260.368L438.817 275.12H440.96C442.951 275.12 443.18 274.758 443.946 270.595C445.018 264.712 445.018 258.74 443.869 248.513C443.257 242.812 442.798 240.911 442.415 242.088C442.032 243.355 441.879 242.812 442.109 240.459C442.262 238.649 442.109 237.291 441.879 237.472C441.573 237.653 440.96 237.291 440.424 236.658C439.659 235.753 439.735 235.391 440.577 235.029C441.726 234.395 444.252 237.382 444.405 239.644C444.482 240.459 444.941 243.626 445.4 246.613C446.396 252.857 447.008 272.767 446.166 271.228C445.783 270.595 445.554 271.138 445.554 272.586C445.554 274.034 445.86 275.12 446.166 275.12C447.238 275.12 453.209 260.821 453.209 258.378C453.209 257.111 453.592 256.115 453.975 256.115C454.511 256.115 454.434 255.391 453.898 254.034C453.056 252.224 453.056 252.133 454.281 253.31C455.2 254.305 455.506 255.391 455.2 257.201C454.817 259.735 455.735 260.73 456.578 258.559C456.807 258.015 456.807 258.83 456.578 260.549C456.348 262.269 455.889 264.26 455.429 265.074C454.893 266.16 454.817 265.889 455.2 263.988C455.506 262.45 455.353 261.545 454.817 261.545C454.051 261.545 453.592 266.16 453.898 269.418C453.975 270.052 453.668 270.595 453.209 270.595C452.826 270.595 452.444 269.871 452.444 268.966C452.444 267.699 452.29 267.608 451.678 268.785C450.683 270.595 450.683 271.771 451.678 271.047C452.137 270.776 452.444 270.957 452.444 271.409C452.444 271.952 451.984 272.405 451.372 272.405C450.836 272.405 449.917 272.948 449.381 273.672C448.692 274.758 448.769 275.029 450.223 274.848C452.367 274.667 455.965 268.875 457.113 263.898C457.726 261.273 457.726 259.373 457.113 256.839C456.195 253.491 453.439 250.685 452.52 252.133C452.29 252.586 451.372 253.038 450.453 253.129C449.075 253.31 448.845 252.857 448.769 249.328C448.692 241.002 443.027 232.585 437.592 232.585C435.448 232.585 434.989 232.857 435.219 234.214Z" fill="#367D43"/>
<path d="M430.472 236.386C426.338 241.635 425.343 244.893 425.343 253.128C425.419 259.916 425.343 260.459 424.118 259.735C421.974 258.377 419.524 261.816 419.524 266.07C419.524 268.785 420.06 270.414 421.745 272.586C423.046 274.305 424.271 275.21 424.654 274.758C424.96 274.305 424.807 273.762 424.347 273.581C423.812 273.31 423.352 272.676 423.352 272.043C423.352 271.319 422.663 269.78 421.821 268.513C420.213 266.07 419.754 263.355 421.056 263.355C421.515 263.355 421.821 263.807 421.821 264.35C421.821 264.803 422.204 264.984 422.663 264.622C423.199 264.26 423.352 264.622 423.046 265.708C422.74 266.975 423.505 268.604 425.649 271.409C427.333 273.581 428.941 275.12 429.17 274.848C429.706 274.215 426.032 265.798 424.577 264.35C423.888 263.626 423.352 262.54 423.352 261.907C423.352 259.373 425.036 260.73 427.333 265.165C428.635 267.699 429.783 269.599 429.936 269.509C430.013 269.328 429.63 267.156 429.094 264.531C428.558 261.997 428.175 258.83 428.252 257.563C428.558 254.667 427.41 254.395 426.95 257.201L426.644 259.282L426.491 257.201C426.491 256.115 426.95 254.938 427.563 254.667C428.941 254.033 429.094 249.599 427.792 247.155C427.103 245.798 427.103 244.893 427.792 243.264C428.635 241.273 428.635 241.273 428.252 243.626C427.946 245.074 428.099 246.16 428.558 246.16C429.553 246.16 430.395 242.178 429.783 240.368C429.477 239.372 429.706 239.01 430.319 239.191C430.931 239.372 431.084 239.372 430.778 239.101C430.395 238.92 431.084 237.562 432.233 236.114C433.381 234.666 433.993 233.49 433.611 233.49C433.151 233.49 431.773 234.847 430.472 236.386Z" fill="#367D43"/>
<path d="M245.361 247.789C243.983 249.418 246.126 257.654 248.806 260.821C251.332 263.808 255.16 264.17 258.835 261.907C261.208 260.459 264.04 254.577 264.117 251.138C264.117 249.418 263.734 249.328 258.835 249.599C255.543 249.871 252.098 249.418 249.724 248.604C247.581 247.88 245.59 247.518 245.361 247.789Z" fill="#367D43"/>
<path d="M418.988 297.564L412.634 297.836V303.175C412.634 306.071 412.94 309.51 413.4 310.777L414.165 313.13H537.343H660.521L661.363 310.325C661.823 308.696 662.205 305.257 662.205 302.632V297.745H656.693C629.057 297.474 423.811 297.383 418.988 297.564Z" fill="#367D43"/>
<path d="M176.843 305.076C154.872 306.523 124.326 310.324 107.943 313.673C99.905 315.392 97.0725 317.655 94.0868 325.257C88.6514 339.013 86.814 356.389 87.5796 387.792C87.8858 399.738 88.3452 411.775 88.6514 414.49L89.2638 419.467L72.2685 419.196L55.2732 418.924L56.2684 424.173C56.8043 427.069 57.187 429.603 56.9574 429.965C56.8043 430.327 55.0435 429.603 53.053 428.427C51.1392 427.25 48.1535 426.255 46.5458 426.255C43.407 426.255 38.5075 428.789 36.7467 431.232C35.828 432.59 35.828 432.952 37.0529 433.947C38.1247 434.943 38.2013 435.576 37.5888 436.843C36.8233 438.382 36.8233 438.291 36.7467 436.481C36.7467 433.314 35.3687 433.223 34.0673 436.3C32.0003 441.006 32.4596 457.115 34.6032 455.577C35.139 455.215 35.2156 455.305 34.9094 455.939C33.4548 458.744 40.7276 468.337 47.3114 472.138C50.6798 474.039 52.8999 474.672 58.3354 474.944C64.6895 475.306 65.1488 475.487 65.455 477.478C65.6847 478.654 65.9909 480.645 66.2206 481.912L66.6034 484.084H104.269C124.939 484.084 142.164 483.903 142.47 483.632C142.853 483.36 155.255 483.179 170.03 483.27C200.882 483.36 203.255 482.998 226.222 475.125C236.404 471.595 252.94 462.455 251.255 461.188C250.873 460.916 250.719 458.835 250.949 456.572C251.332 452.228 251.179 451.957 248.806 453.405C247.963 453.857 246.585 454.672 245.743 455.215C244.901 455.667 243.829 456.12 243.294 456.12C242.758 456.12 241.303 456.753 240.078 457.477C238.853 458.292 237.399 458.744 236.863 458.473C236.327 458.201 235.715 458.654 235.485 459.378C235.255 460.102 234.107 460.645 232.959 460.645C231.81 460.645 229.896 461.188 228.748 461.912C227.217 462.817 226.604 462.907 226.375 462.183C226.145 461.369 225.609 461.55 224.614 462.455C221.858 465.17 220.25 465.713 202.489 470.238C193.532 472.591 166.126 472.591 159.618 470.238C153.341 468.066 148.441 464.355 148.977 462.183C149.283 461.097 149.054 460.554 148.365 460.735C147.829 460.826 146.987 460.826 146.451 460.735C145.302 460.645 141.168 451.595 139.944 446.346C138.566 440.644 138.183 423.811 139.331 417.929C141.551 406.164 142.623 401.639 143.542 400.643C144.001 400.01 144.69 397.928 144.92 395.937C145.226 393.946 145.762 392.227 146.221 392.046C146.604 391.865 146.987 390.688 146.987 389.512C146.987 388.335 147.369 387.34 147.752 387.34C148.212 387.34 148.518 386.616 148.518 385.62C148.518 384.715 149.36 382.453 150.432 380.643C151.503 378.833 152.346 377.113 152.346 376.842C152.346 375.665 157.398 367.43 158.087 367.43C158.47 367.43 159.542 365.801 160.307 363.719C161.149 361.728 162.451 359.647 163.14 359.194C163.905 358.742 164.748 357.565 164.977 356.57C165.207 355.574 165.972 354.76 166.585 354.76C167.197 354.76 167.657 354.488 167.657 354.036C167.657 353.674 169.877 350.597 172.633 347.067C175.389 343.628 177.456 340.28 177.226 339.556C176.996 338.741 177.226 338.651 178.374 339.375C180.288 340.642 182.279 340.551 180.671 339.375C179.676 338.56 179.752 338.289 180.977 337.384C181.819 336.841 183.963 334.759 185.8 332.768C188.48 329.872 189.475 329.329 191.083 329.782C192.384 330.234 192.843 330.053 192.537 329.42C192.308 328.967 191.465 328.515 190.776 328.515C189.705 328.424 189.781 328.153 191.236 326.795C192.231 325.709 192.614 324.895 192.001 324.714C191.542 324.533 192.231 323.809 193.532 323.175C194.91 322.451 195.982 321.637 195.982 321.184C195.982 320.732 196.518 320.37 197.207 320.37C197.896 320.37 199.351 319.646 200.422 318.65C203.332 316.297 216.269 311.139 219.791 310.958C221.399 310.958 222.777 310.596 222.777 310.324C222.777 310.053 223.466 308.876 224.308 307.7C225.15 306.523 225.839 305.257 225.839 304.804C225.839 303.899 192.231 304.08 176.843 305.076ZM97.9912 355.846C97.9146 356.479 97.4553 358.018 96.8428 359.285C94.9289 363.176 95.4648 367.792 98.9098 376.661C102.661 386.706 102.891 389.964 99.9816 398.562C98.527 402.725 97.9146 405.983 98.1443 408.517C98.4505 412.951 97.2256 414.218 96.3069 410.417C95.5414 407.159 96.0007 404.354 98.4505 397.295C100.977 389.874 100.747 386.797 97.2256 377.475C93.8572 368.697 93.3213 363.357 95.2352 357.927C96.3835 354.85 97.9912 353.583 97.9912 355.846ZM111.465 422.182C111.159 424.173 111.235 425.35 111.771 425.35C112.154 425.35 112.537 424.535 112.537 423.54C112.537 422.635 113.226 421.368 114.068 420.825C115.293 420.01 115.599 420.101 115.599 421.368C115.599 422.544 115.829 422.635 116.747 421.73C117.666 420.825 117.896 420.825 117.896 422.001C117.896 422.725 117.589 423.54 117.207 423.721C116.824 423.811 116.288 425.802 115.982 427.974C115.522 430.961 115.675 431.775 116.364 431.232C116.977 430.78 117.207 430.961 116.977 431.775C116.747 432.499 116.135 432.952 115.675 432.771C114.68 432.59 114.604 434.49 115.522 439.106C115.905 441.097 115.905 442.364 115.522 442.002C115.14 441.73 114.833 440.644 114.757 439.558C114.68 438.472 114.374 439.377 113.991 441.64C113.608 443.902 113.532 446.889 113.762 448.337C114.068 449.785 113.915 450.69 113.532 450.418C112.766 449.875 109.934 465.622 110.546 466.799C110.776 467.161 109.857 467.613 108.632 467.704C106.642 467.885 106.412 467.613 106.412 465.441C106.412 463.45 106.259 463.179 105.647 464.265C105.034 465.26 104.958 465.079 105.264 463.36C105.494 462.093 105.8 459.83 105.876 458.201C105.953 456.663 106.259 455.577 106.642 455.848C106.948 456.029 107.178 455.305 107.254 454.129C107.254 452.138 107.331 452.138 108.02 453.857C108.556 455.305 108.632 455.034 108.326 452.681C108.173 451.142 108.25 449.785 108.632 449.785C109.015 449.785 109.474 448.789 109.628 447.522C109.857 446.255 109.704 445.26 109.398 445.26C109.015 445.26 108.709 445.893 108.709 446.708C108.709 447.432 108.403 447.794 107.943 447.522C107.484 447.16 107.178 447.975 107.178 449.332C107.178 452.138 105.647 453.043 103.273 451.504C101.819 450.599 101.742 450.328 102.661 449.423C103.733 448.427 104.039 447.341 107.331 432.59C108.326 428.336 109.321 424.716 109.628 424.445C109.857 424.173 110.393 422.816 110.623 421.458C111.388 417.929 112.001 418.472 111.465 422.182ZM52.9765 439.106C57.6464 440.735 60.0196 444.626 61.1679 452.59C61.7038 456.301 62.4694 460.735 62.8522 462.455C64.0005 467.975 63.9239 468.156 60.0196 467.523C57.1105 467.07 56.1918 467.251 55.3497 468.518C54.3545 470.057 54.2779 470.057 54.9669 468.337C55.6559 466.889 55.2732 466.346 52.5937 464.898C50.8329 463.903 48.9956 463.088 48.4597 463.088C47.9238 463.088 47.6176 462.817 47.6942 462.545C47.7707 462.183 46.9286 460.735 45.7803 459.287C44.5554 457.839 43.6367 456.301 43.6367 455.848C43.6367 455.486 43.407 455.305 43.1008 455.486C42.718 455.758 42.4118 454.672 42.3353 453.224C42.1056 449.604 41.5697 449.061 40.1917 451.233C39.1965 452.862 39.1199 452.862 39.0434 451.323C39.0434 450.056 38.6606 449.785 37.5123 450.237C36.6702 450.599 35.9812 450.418 35.9812 449.875C35.9812 449.332 36.2108 448.88 36.5936 448.789C36.8998 448.789 37.7419 448.608 38.5075 448.427C39.1965 448.246 39.6558 448.518 39.3496 448.97C39.1199 449.423 39.273 449.785 39.7324 449.785C40.7276 449.785 42.1056 446.798 42.1056 444.536C42.1056 443.54 42.7946 441.73 43.7133 440.373C45.474 437.748 48.0769 437.386 52.9765 439.106Z" fill="#367D43"/>
<path d="M219.332 312.135C217.647 312.587 217.112 313.221 217.265 314.488C217.724 318.379 218.03 319.918 218.183 320.099C218.26 320.28 218.413 320.642 218.49 321.004C218.719 322.452 224.844 329.239 227.523 331.049C232.04 334.036 240.538 336.117 245.59 335.393C252.404 334.488 257.763 333.312 256.078 333.131C254.777 332.95 254.93 332.769 256.844 331.502C259.6 329.873 262.586 326.705 262.586 325.619C262.586 325.167 263.504 323.357 264.576 321.728C265.648 320.008 266.566 318.379 266.566 317.927C266.566 317.565 267.485 316.66 268.633 316.026L270.624 314.94L268.557 315.393C267.332 315.664 266.413 315.483 266.413 314.94C266.413 314.488 266.873 314.035 267.409 314.035C267.868 313.945 267.332 313.402 266.031 312.768C263.81 311.682 263.657 311.682 261.973 315.302C259.447 320.551 258.069 322.09 253.782 324.624C245.973 329.33 233.188 327.701 227.293 321.185C225.915 319.646 224.614 318.832 224.461 319.375C224.155 320.551 222.777 319.827 222.777 318.47C222.777 317.927 223.159 317.836 223.542 318.108C224.002 318.379 224.308 318.47 224.308 318.289C224.308 317.655 222.011 311.32 221.781 311.411C221.705 311.501 220.633 311.773 219.332 312.135Z" fill="#367D43"/>
<path d="M585.574 350.325C583.047 353.493 581.133 360.099 580.521 367.611C580.291 370.507 579.909 372.86 579.755 372.86C579.602 372.86 578.531 371.593 577.459 370.145C574.703 366.163 571.641 364.534 569.267 365.62C566.971 366.615 565.516 369.149 563.832 375.032C562.53 379.557 562.684 381.095 565.593 394.58C566.129 397.295 566.052 396.661 566.818 407.16L567.43 415.757L571.334 421.006C574.09 424.807 575.392 425.984 575.851 425.169C576.234 424.355 576.464 424.536 576.464 425.893C576.464 426.889 577.306 428.97 578.377 430.418L580.291 433.043V428.789C580.291 426.436 580.674 424.264 581.057 423.993C581.516 423.631 581.822 418.291 581.822 410.779C581.822 400.281 581.669 398.2 580.674 398.2C580.062 398.2 579.373 399.105 579.22 400.191C578.99 401.368 578.684 403.087 578.531 404.083C578.301 405.078 578.148 404.173 578.071 402.001C578.071 399.919 578.301 398.2 578.684 398.2C579.066 398.2 579.602 397.295 579.832 396.118C580.291 394.58 580.521 394.399 580.904 395.485C581.21 396.209 582.282 397.023 583.354 397.114C584.425 397.295 585.344 397.566 585.421 397.657C585.497 397.747 585.727 402.544 585.956 408.245C586.339 419.558 586.033 418.563 585.267 406.074C584.425 392.86 583.277 396.933 583.43 412.68C583.507 420.644 583.889 427.16 584.196 427.16C584.578 427.16 584.961 425.803 584.961 424.174C585.038 422.545 585.191 422.002 585.421 422.907C585.88 425.079 585.038 429.151 584.196 428.608C583.813 428.337 583.354 430.237 583.124 432.862C582.971 435.396 583.047 437.658 583.43 437.839C583.813 438.02 584.119 438.563 584.119 439.016C584.119 439.921 577.076 439.378 569.191 437.93C561.459 436.391 545.841 430.418 546.837 429.332C547.066 429.061 551.277 430.328 556.253 432.138C566.205 435.848 577.995 437.568 576.846 435.215C575.698 433.043 567.507 421.278 566.129 419.92C565.44 419.196 564.062 418.563 563.219 418.382C553.65 416.843 541.248 412.228 537.344 408.789C535.277 406.979 534.817 406.798 544.463 410.961C550.664 413.585 559.239 415.757 561.612 415.214C562.607 415.033 560.999 412.409 555.028 404.535C545.152 391.684 545.229 391.774 544.693 391.955C543.545 392.408 535.889 389.783 535.124 388.697C534.358 387.611 534.817 387.611 538.186 388.788C540.329 389.512 542.396 390.055 542.779 389.874C543.162 389.693 541.784 387.521 539.717 384.987C537.114 381.729 535.124 380.1 533.286 379.738C531.755 379.376 530.377 378.652 530.071 378.109C529.688 377.475 530.147 377.294 531.602 377.747C534.052 378.471 534.128 377.928 531.679 375.032C529.382 372.317 529.152 370.597 531.296 372.136C532.138 372.769 532.827 373.584 532.827 373.946C532.827 374.398 533.21 374.67 533.669 374.67C534.281 374.67 534.281 374.308 533.669 373.403C532.98 372.498 532.98 371.955 533.592 371.502C534.741 370.688 536.655 372.679 536.655 374.76C536.655 375.756 536.961 376.48 537.42 376.48C537.803 376.48 537.956 377.023 537.726 377.747C537.191 379.466 539.717 382.815 541.478 382.815C542.243 382.815 542.703 383.177 542.473 383.629C542.243 383.991 542.703 385.349 543.545 386.435C544.387 387.611 545.076 388.154 545.076 387.702C545.076 387.159 544.77 386.435 544.387 385.892C543.085 384.263 542.167 379.466 542.856 378.199C543.468 377.204 543.774 377.294 544.54 378.742C544.999 379.738 545.535 381.186 545.612 381.91C546.683 389.964 551.124 398.562 552.731 395.485C553.114 394.761 553.65 394.489 554.033 394.851C554.339 395.304 554.109 395.937 553.497 396.39C552.655 397.023 553.344 398.2 556.559 402.001C558.856 404.625 560.999 406.707 561.382 406.526C561.765 406.436 561.841 406.707 561.535 407.25C560.923 408.427 562.607 411.051 563.526 410.327C563.908 410.056 564.215 407.974 564.138 405.621C564.138 402.182 563.985 401.729 563.449 403.358C563.066 404.535 562.301 405.44 561.765 405.44C561.076 405.44 561.076 405.168 561.612 404.716C562.913 403.721 563.449 400.01 562.224 400.643C561.612 400.915 561.152 400.643 561.152 400.191C561.152 399.648 560.54 399.014 559.851 398.743C559.085 398.471 559.621 398.381 560.999 398.562C563.143 398.743 563.449 398.562 563.449 396.571C563.449 395.304 562.99 393.856 562.377 393.313C561.076 392.136 558.09 383.177 558.703 382.362C559.239 381.729 561.152 386.978 561.152 389.24C561.152 390.236 561.535 390.96 561.995 390.96C562.913 390.96 562.76 390.055 561.076 382.996C560.234 379.376 560.31 378.923 561.841 377.204C564.062 374.851 563.373 374.127 560.846 376.118C559.698 376.932 558.626 377.385 558.32 377.113C558.09 376.751 558.703 376.118 559.698 375.665C560.846 375.122 561.076 374.76 560.31 374.76C557.401 374.579 554.569 382.815 556.865 384.896C557.478 385.53 558.167 387.159 558.473 388.697C558.856 391.231 558.779 391.231 557.784 388.245C557.018 385.982 556.636 385.62 556.636 386.887C556.559 387.973 556.1 389.331 555.64 389.964C554.798 390.96 554.875 391.141 555.87 390.688C556.865 390.326 557.018 390.598 556.789 391.955C556.559 392.86 556.1 393.675 555.794 393.675C554.798 393.675 554.262 389.693 555.181 389.059C556.329 388.154 552.884 383.086 547.143 377.113C538.569 368.244 533.363 366.253 529.458 370.597C525.248 375.213 527.621 383.81 535.813 393.765C538.798 397.295 541.248 400.372 541.248 400.553C541.248 400.824 539.87 400.643 538.186 400.372C534.128 399.557 531.602 400.462 530.071 403.268C527.391 407.974 531.602 415.395 539.564 420.282C541.937 421.73 542.856 423.54 541.248 423.54C540.865 423.54 540.482 424.988 540.482 426.708C540.482 429.332 541.171 430.69 544.693 434.853C548.521 439.378 548.98 440.283 547.219 439.921C546.837 439.921 546.607 441.278 546.607 442.998V446.165L592.004 445.984L637.325 445.713L637.555 443.631C637.708 442.455 637.325 441.007 636.636 440.464C635.641 439.559 636.1 438.744 639.775 435.305C644.828 430.599 648.349 424.898 648.962 420.463C649.268 417.929 649.038 416.934 647.277 414.943C645.44 412.68 644.828 412.499 641.153 412.861L637.019 413.314L638.933 409.513C641.23 404.716 641.383 398.924 639.239 396.39C637.478 394.308 636.789 394.218 632.885 395.937C630.206 397.023 629.976 397.023 630.359 395.666C630.588 394.761 631.66 391.231 632.655 387.792C635.718 377.837 634.952 369.149 630.895 366.525C627.296 364.262 623.162 365.71 618.493 370.778L616.502 372.95L614.894 369.783C611.679 363.357 605.172 361.457 600.349 365.439C599.124 366.525 597.823 367.43 597.593 367.43C597.363 367.43 597.134 365.077 597.134 362.09C597.134 352.588 594.837 347.52 590.397 347.52C588.483 347.52 587.258 348.244 585.574 350.325ZM627.45 376.932C626.761 378.742 626.378 380.643 626.607 381.005C626.837 381.457 626.684 382 626.225 382.362C625.765 382.634 624.387 385.62 623.086 388.969C621.861 392.317 620.406 395.937 619.947 397.023C619.488 398.019 619.411 399.376 619.641 399.919C619.947 400.372 619.411 401.277 618.569 401.82C617.727 402.363 617.038 403.177 617.038 403.63C617.038 404.083 615.124 409.06 612.827 414.581C610.531 420.101 608.617 424.807 608.617 424.988C608.617 426.165 611.449 424.807 616.885 420.825C620.33 418.382 623.162 416.481 623.162 416.753C623.162 417.386 615.66 423.45 611.679 425.984C608.158 428.246 607.086 429.513 605.095 434.038C603.794 436.934 602.186 439.468 601.421 439.649C599.813 440.011 599.813 439.649 602.186 433.857C604.1 428.97 604.1 428.97 602.875 423.812C601.191 417.024 599.43 403.449 599.583 398.2C599.66 393.856 599.736 394.399 601.038 406.526C601.957 415.124 604.024 424.626 605.172 425.079C605.631 425.169 608.081 420.282 610.684 414.128C614.971 403.811 615.354 402.544 614.665 399.376C614.282 397.476 614.052 393.313 614.129 390.055L614.205 384.172L614.665 390.507C615.583 401.277 616.196 401.368 620.33 391.684C622.933 385.711 623.928 382.091 624.005 379.195C624.081 375.846 624.158 375.575 624.617 377.656C625.076 380.19 625.076 380.19 626.607 376.118C628.445 371.321 629.134 372.045 627.45 376.932Z" fill="#367D43"/>
<path d="M334.931 384.444C324.902 409.875 324.289 411.051 322.299 412.047C321.61 412.318 321.533 412.59 322.069 412.59C322.605 412.68 322.835 413.314 322.605 414.038C322.299 414.762 321.763 415.124 321.304 414.762C320.921 414.49 320.768 414.671 321.074 415.214C321.304 415.757 320.615 418.382 319.39 421.097C318.242 423.812 316.634 427.884 315.868 430.237C315.103 432.5 314.031 434.4 313.419 434.4C312.806 434.4 312.423 435.215 312.423 436.391C312.5 437.568 311.811 440.102 310.969 442.093C310.05 444.084 309.361 445.17 309.285 444.536C309.285 443.903 308.978 443.631 308.519 443.903C308.136 444.174 307.753 443.812 307.753 442.998C307.753 442.183 308.136 441.821 308.519 442.093C308.978 442.364 309.285 442.183 309.285 441.731C309.285 441.188 308.596 440.735 307.677 440.735C305.074 440.735 300.634 434.491 297.265 426.255C293.284 416.572 292.442 413.947 292.442 411.866C292.442 410.961 291.906 408.155 291.217 405.621C290.069 401.549 290.069 400.644 291.217 394.761C292.595 387.521 292.825 380.1 291.677 380.1C290.835 380.1 290.835 379.919 290.528 385.259C290.146 391.413 283.485 411.775 282.72 409.151C282.49 408.517 282.796 407.612 283.332 407.16C283.868 406.798 284.098 406.164 283.792 405.712C282.72 404.445 281.725 407.612 282.107 410.87C282.49 413.404 282.184 414.671 280.806 416.753L279.122 419.287L280.806 418.834C282.184 418.382 282.72 419.015 284.404 423.269C285.629 426.436 286.624 427.975 287.16 427.522C287.772 427.16 287.849 427.251 287.543 427.975C286.854 429.242 289.993 435.486 290.911 434.853C291.294 434.581 291.83 434.853 292.136 435.396C292.442 436.12 292.366 436.21 291.83 435.848C291.294 435.486 290.911 435.577 290.911 435.939C290.911 436.663 293.055 440.735 293.897 441.64C294.203 441.912 296.194 444.627 298.414 447.704C301.399 451.776 303.007 453.315 304.155 453.134C305.61 452.953 305.84 453.315 305.61 455.577C305.457 457.025 304.385 460.826 303.16 464.084L300.863 469.876L274.681 469.695C260.212 469.605 247.81 469.514 247.121 469.605C245.514 469.695 243.294 476.573 243.6 480.646L243.83 483.723H350.471H457.113L470.893 449.333C478.472 430.418 485.515 412.861 486.511 410.418C487.429 407.884 489.956 401.639 492.099 396.39C494.166 391.141 497.994 381.639 500.597 375.123C503.2 368.697 505.19 362.543 505.114 361.548C504.884 359.738 504.578 359.738 424.883 359.557L344.883 359.376L334.931 384.444ZM421.438 413.585C423.812 416.21 425.113 421.006 424.501 424.445C424.271 425.893 422.74 428.337 421.285 429.966C418.759 432.5 418.147 432.771 414.625 432.319C411.41 431.957 410.414 431.414 408.654 428.88C405.056 423.812 406.204 415.395 410.95 412.228C413.783 410.327 419.142 410.961 421.438 413.585Z" fill="#367D43"/>
<path d="M206.164 367.159C205.628 367.34 204.633 368.969 203.944 370.688C203.179 372.589 202.183 373.765 201.265 373.765C200.423 373.765 199.81 374.308 199.81 375.032C199.81 375.666 198.968 377.295 197.896 378.652C196.824 380.01 195.982 381.729 195.982 382.453C195.982 383.087 195.676 383.72 195.217 383.72C194.834 383.72 194.451 384.173 194.451 384.625C194.451 385.168 193.533 386.707 192.461 388.064C191.389 389.422 190.011 391.775 189.399 393.404C188.863 394.942 188.021 396.571 187.561 396.843C187.102 397.205 185.877 399.286 184.882 401.639C183.81 403.992 182.126 407.522 181.054 409.513C180.059 411.504 178.834 414.581 178.298 416.3C177.839 418.02 176.767 420.554 176.001 421.911C175.159 423.178 174.547 425.079 174.547 426.074C174.547 427.16 174.241 428.246 173.781 428.518C173.398 428.789 173.016 429.875 173.016 430.871C173.016 432.409 172.48 432.59 168.116 432.59C162.374 432.59 152.193 435.848 153.953 437.205C155.561 438.382 157.169 438.201 159.925 436.572C162.987 434.762 170.719 435.214 183.733 438.02C199.657 441.368 201.571 441.64 215.121 441.549C224.614 441.549 230.968 441.006 236.939 439.739C242.145 438.744 245.437 438.382 245.59 438.925C245.743 439.468 246.203 439.83 246.662 439.83C247.198 439.83 247.121 439.377 246.585 438.563C245.82 437.567 245.973 437.024 247.274 435.938C248.193 435.214 248.576 434.309 248.193 434.038C247.734 433.766 247.274 433.857 247.121 434.4C246.509 436.572 231.045 438.925 217.035 438.925C203.255 438.925 200.576 438.563 188.327 435.576L181.743 433.947L182.355 430.599C182.968 427.07 185.877 419.92 186.719 419.92C186.949 419.92 187.255 418.925 187.255 417.748C187.332 416.572 188.633 413.495 190.164 410.87C191.695 408.246 192.92 405.621 192.92 404.897C192.92 404.173 193.303 403.63 193.686 403.63C194.145 403.63 194.451 402.906 194.451 402.001C194.451 401.006 195.14 399.377 195.982 398.2C196.824 397.024 197.743 395.033 198.049 393.766C198.279 392.499 199.121 390.327 199.887 389.06C200.652 387.793 201.494 385.711 201.724 384.354C202.03 382.996 202.566 381.639 202.949 381.367C203.332 381.096 203.638 380.191 203.638 379.376C203.638 377.657 206.777 369.874 207.695 369.421C208.002 369.24 208.231 368.516 208.231 367.792C208.231 366.525 207.772 366.344 206.164 367.159Z" fill="#367D43"/>
<path d="M547.372 449.966C547.372 450.6 547.755 452.681 548.214 454.491L548.98 457.93H592.081H635.258L636.1 453.948C636.559 451.686 636.942 449.695 636.942 449.423C636.942 449.152 616.808 448.88 592.157 448.88C556.865 448.88 547.372 449.152 547.372 449.966Z" fill="#367D43"/>
<path d="M471.582 462.365C470.357 465.894 470.357 477.025 471.582 480.555L472.577 483.27L508.252 483.089L543.927 482.817L544.157 479.559C544.387 476.301 544.387 476.301 540.712 475.668C538.721 475.396 523.793 475.125 507.563 475.125L478.089 475.215V471.324V467.432L511.161 467.161L544.31 466.98L544.769 464.718C545.841 459.559 547.525 459.74 508.482 459.74H472.501L471.582 462.365Z" fill="#367D43"/>
<path d="M550.435 462.546C550.435 464.446 555.028 473.768 558.473 479.016L561.918 484.175H592.004H622.014L625.459 479.197C628.521 474.854 633.88 464.084 633.88 462.184C633.88 461.822 615.124 461.55 592.157 461.55C562.071 461.55 550.435 461.822 550.435 462.546Z" fill="#367D43"/>
<g style="mix-blend-mode:darken">
<path opacity="0.9" d="M98.9579 454.433C104.376 469.592 118.074 481.416 133.294 485.424C156.124 491.485 178.954 477.594 201.784 471.221C242.33 459.899 285.083 472.458 325.583 483.921C366.084 495.384 410.009 505.657 449.246 490.185C482.928 476.937 507.63 446.478 524.707 413.811C557.125 351.719 566.699 279.887 571.447 209.574C573.563 178.254 574.735 145.916 565.101 116.068C555.466 86.2197 532.88 58.94 502.881 52.9422C474.085 47.1637 444.954 61.6648 421.683 80.0497C398.411 98.4345 378.229 121.189 352.827 136.285C315.812 158.209 270.639 161.936 228.404 155.155C202.256 150.958 158.651 99.9535 114.254 118.808C67.0263 138.806 46.4489 308.404 98.9579 454.433Z" fill="#CADBC2"/>
</g>
<ellipse cx="228" cy="227" rx="4" ry="8" fill="#367D43"/>
<ellipse cx="284" cy="224" rx="4" ry="8" fill="#367D43"/>
</svg>
